<?xml version="1.0" encoding="utf-8" standalone="no"?>
<!DOCTYPE svg PUBLIC "-//W3C//DTD SVG 1.1//EN"
  "http://www.w3.org/Graphics/SVG/1.1/DTD/svg11.dtd">
<!-- Created with matplotlib (http://matplotlib.org/) -->
<svg height="432pt" version="1.1" viewBox="0 0 408.430659 432" width="408.430659pt" xmlns="http://www.w3.org/2000/svg" xmlns:xlink="http://www.w3.org/1999/xlink">
 <defs>
  <style type="text/css">
*{stroke-linecap:butt;stroke-linejoin:round;}
  </style>
 </defs>
 <g id="figure_1">
  <g id="patch_1">
   <path d="M 0 432 
L 408.430659 432 
L 408.430659 0 
L 0 0 
z
" style="fill:none;opacity:0;"/>
  </g>
  <g id="axes_1">
   <g id="PathCollection_1">
    <defs>
     <path d="M 0 1.936492 
C 0.513564 1.936492 1.006162 1.732451 1.369306 1.369306 
C 1.732451 1.006162 1.936492 0.513564 1.936492 0 
C 1.936492 -0.513564 1.732451 -1.006162 1.369306 -1.369306 
C 1.006162 -1.732451 0.513564 -1.936492 0 -1.936492 
C -0.513564 -1.936492 -1.006162 -1.732451 -1.369306 -1.369306 
C -1.732451 -1.006162 -1.936492 -0.513564 -1.936492 0 
C -1.936492 0.513564 -1.732451 1.006162 -1.369306 1.369306 
C -1.006162 1.732451 -0.513564 1.936492 0 1.936492 
z
" id="C0_0_8c390f6cd9"/>
    </defs>
    <g clip-path="url(#pbe9b96d8c1)">
     <use style="fill:#66ccff;" x="350.15029" xlink:href="#C0_0_8c390f6cd9" y="339.077124"/>
    </g>
    <g clip-path="url(#pbe9b96d8c1)">
     <use style="fill:#66ccff;" x="253.490613" xlink:href="#C0_0_8c390f6cd9" y="279.501536"/>
    </g>
    <g clip-path="url(#pbe9b96d8c1)">
     <use style="fill:#66ccff;" x="350.049194" xlink:href="#C0_0_8c390f6cd9" y="244.312999"/>
    </g>
    <g clip-path="url(#pbe9b96d8c1)">
     <use style="fill:#66ccff;" x="338.947087" xlink:href="#C0_0_8c390f6cd9" y="288.42581"/>
    </g>
    <g clip-path="url(#pbe9b96d8c1)">
     <use style="fill:#66ccff;" x="185.14034" xlink:href="#C0_0_8c390f6cd9" y="387.97503"/>
    </g>
    <g clip-path="url(#pbe9b96d8c1)">
     <use style="fill:#66ccff;" x="377.460145" xlink:href="#C0_0_8c390f6cd9" y="257.177737"/>
    </g>
    <g clip-path="url(#pbe9b96d8c1)">
     <use style="fill:#66ccff;" x="353.588099" xlink:href="#C0_0_8c390f6cd9" y="249.113999"/>
    </g>
    <g clip-path="url(#pbe9b96d8c1)">
     <use style="fill:#66ccff;" x="323.238852" xlink:href="#C0_0_8c390f6cd9" y="232.120552"/>
    </g>
    <g clip-path="url(#pbe9b96d8c1)">
     <use style="fill:#66ccff;" x="358.927223" xlink:href="#C0_0_8c390f6cd9" y="342.069724"/>
    </g>
    <g clip-path="url(#pbe9b96d8c1)">
     <use style="fill:#66ccff;" x="313.125285" xlink:href="#C0_0_8c390f6cd9" y="279.009882"/>
    </g>
    <g clip-path="url(#pbe9b96d8c1)">
     <use style="fill:#66ccff;" x="255.927259" xlink:href="#C0_0_8c390f6cd9" y="411.623368"/>
    </g>
    <g clip-path="url(#pbe9b96d8c1)">
     <use style="fill:#66ccff;" x="140.031795" xlink:href="#C0_0_8c390f6cd9" y="276.513428"/>
    </g>
    <g clip-path="url(#pbe9b96d8c1)">
     <use style="fill:#66ccff;" x="260.738031" xlink:href="#C0_0_8c390f6cd9" y="412.840139"/>
    </g>
    <g clip-path="url(#pbe9b96d8c1)">
     <use style="fill:#66ccff;" x="334.580872" xlink:href="#C0_0_8c390f6cd9" y="287.010856"/>
    </g>
    <g clip-path="url(#pbe9b96d8c1)">
     <use style="fill:#66ccff;" x="346.015687" xlink:href="#C0_0_8c390f6cd9" y="282.411973"/>
    </g>
    <g clip-path="url(#pbe9b96d8c1)">
     <use style="fill:#66ccff;" x="137.091736" xlink:href="#C0_0_8c390f6cd9" y="43.974307"/>
    </g>
    <g clip-path="url(#pbe9b96d8c1)">
     <use style="fill:#66ccff;" x="321.622905" xlink:href="#C0_0_8c390f6cd9" y="158.370099"/>
    </g>
    <g clip-path="url(#pbe9b96d8c1)">
     <use style="fill:#66ccff;" x="179.533224" xlink:href="#C0_0_8c390f6cd9" y="387.384809"/>
    </g>
    <g clip-path="url(#pbe9b96d8c1)">
     <use style="fill:#66ccff;" x="325.46549" xlink:href="#C0_0_8c390f6cd9" y="152.569504"/>
    </g>
    <g clip-path="url(#pbe9b96d8c1)">
     <use style="fill:#66ccff;" x="246.171302" xlink:href="#C0_0_8c390f6cd9" y="215.949715"/>
    </g>
    <g clip-path="url(#pbe9b96d8c1)">
     <use style="fill:#66ccff;" x="139.544871" xlink:href="#C0_0_8c390f6cd9" y="41.38138"/>
    </g>
    <g clip-path="url(#pbe9b96d8c1)">
     <use style="fill:#66ccff;" x="114.933435" xlink:href="#C0_0_8c390f6cd9" y="54.057229"/>
    </g>
    <g clip-path="url(#pbe9b96d8c1)">
     <use style="fill:#66ccff;" x="323.186744" xlink:href="#C0_0_8c390f6cd9" y="282.870055"/>
    </g>
    <g clip-path="url(#pbe9b96d8c1)">
     <use style="fill:#66ccff;" x="327.494906" xlink:href="#C0_0_8c390f6cd9" y="294.454459"/>
    </g>
    <g clip-path="url(#pbe9b96d8c1)">
     <use style="fill:#66ccff;" x="250.640222" xlink:href="#C0_0_8c390f6cd9" y="399.499461"/>
    </g>
    <g clip-path="url(#pbe9b96d8c1)">
     <use style="fill:#66ccff;" x="268.864954" xlink:href="#C0_0_8c390f6cd9" y="176.384938"/>
    </g>
    <g clip-path="url(#pbe9b96d8c1)">
     <use style="fill:#66ccff;" x="337.147504" xlink:href="#C0_0_8c390f6cd9" y="278.830669"/>
    </g>
    <g clip-path="url(#pbe9b96d8c1)">
     <use style="fill:#66ccff;" x="317.030563" xlink:href="#C0_0_8c390f6cd9" y="156.492188"/>
    </g>
    <g clip-path="url(#pbe9b96d8c1)">
     <use style="fill:#66ccff;" x="267.851566" xlink:href="#C0_0_8c390f6cd9" y="185.856376"/>
    </g>
    <g clip-path="url(#pbe9b96d8c1)">
     <use style="fill:#66ccff;" x="329.173527" xlink:href="#C0_0_8c390f6cd9" y="154.352883"/>
    </g>
    <g clip-path="url(#pbe9b96d8c1)">
     <use style="fill:#66ccff;" x="319.542236" xlink:href="#C0_0_8c390f6cd9" y="161.796183"/>
    </g>
    <g clip-path="url(#pbe9b96d8c1)">
     <use style="fill:#66ccff;" x="264.778672" xlink:href="#C0_0_8c390f6cd9" y="175.718288"/>
    </g>
    <g clip-path="url(#pbe9b96d8c1)">
     <use style="fill:#66ccff;" x="224.794241" xlink:href="#C0_0_8c390f6cd9" y="36.02917"/>
    </g>
    <g clip-path="url(#pbe9b96d8c1)">
     <use style="fill:#66ccff;" x="344.985055" xlink:href="#C0_0_8c390f6cd9" y="33.734777"/>
    </g>
    <g clip-path="url(#pbe9b96d8c1)">
     <use style="fill:#66ccff;" x="326.022909" xlink:href="#C0_0_8c390f6cd9" y="160.169162"/>
    </g>
    <g clip-path="url(#pbe9b96d8c1)">
     <use style="fill:#66ccff;" x="311.722019" xlink:href="#C0_0_8c390f6cd9" y="255.074227"/>
    </g>
    <g clip-path="url(#pbe9b96d8c1)">
     <use style="fill:#66ccff;" x="326.548822" xlink:href="#C0_0_8c390f6cd9" y="157.67458"/>
    </g>
    <g clip-path="url(#pbe9b96d8c1)">
     <use style="fill:#66ccff;" x="327.392221" xlink:href="#C0_0_8c390f6cd9" y="271.71569"/>
    </g>
    <g clip-path="url(#pbe9b96d8c1)">
     <use style="fill:#66ccff;" x="330.129558" xlink:href="#C0_0_8c390f6cd9" y="154.811763"/>
    </g>
    <g clip-path="url(#pbe9b96d8c1)">
     <use style="fill:#66ccff;" x="269.71603" xlink:href="#C0_0_8c390f6cd9" y="168.412584"/>
    </g>
    <g clip-path="url(#pbe9b96d8c1)">
     <use style="fill:#66ccff;" x="94.131997" xlink:href="#C0_0_8c390f6cd9" y="28.28303"/>
    </g>
    <g clip-path="url(#pbe9b96d8c1)">
     <use style="fill:#66ccff;" x="159.768679" xlink:href="#C0_0_8c390f6cd9" y="324.629197"/>
    </g>
    <g clip-path="url(#pbe9b96d8c1)">
     <use style="fill:#66ccff;" x="316.09678" xlink:href="#C0_0_8c390f6cd9" y="271.5752"/>
    </g>
    <g clip-path="url(#pbe9b96d8c1)">
     <use style="fill:#66ccff;" x="358.089537" xlink:href="#C0_0_8c390f6cd9" y="13.556278"/>
    </g>
    <g clip-path="url(#pbe9b96d8c1)">
     <use style="fill:#66ccff;" x="364.24605" xlink:href="#C0_0_8c390f6cd9" y="338.851874"/>
    </g>
    <g clip-path="url(#pbe9b96d8c1)">
     <use style="fill:#66ccff;" x="271.324293" xlink:href="#C0_0_8c390f6cd9" y="172.194255"/>
    </g>
    <g clip-path="url(#pbe9b96d8c1)">
     <use style="fill:#66ccff;" x="349.186218" xlink:href="#C0_0_8c390f6cd9" y="21.880891"/>
    </g>
    <g clip-path="url(#pbe9b96d8c1)">
     <use style="fill:#66ccff;" x="345.712999" xlink:href="#C0_0_8c390f6cd9" y="8.307692"/>
    </g>
    <g clip-path="url(#pbe9b96d8c1)">
     <use style="fill:#66ccff;" x="321.156552" xlink:href="#C0_0_8c390f6cd9" y="150.378605"/>
    </g>
    <g clip-path="url(#pbe9b96d8c1)">
     <use style="fill:#66ccff;" x="75.713765" xlink:href="#C0_0_8c390f6cd9" y="90.892539"/>
    </g>
    <g clip-path="url(#pbe9b96d8c1)">
     <use style="fill:#66ccff;" x="354.646883" xlink:href="#C0_0_8c390f6cd9" y="245.449376"/>
    </g>
    <g clip-path="url(#pbe9b96d8c1)">
     <use style="fill:#66ccff;" x="144.306126" xlink:href="#C0_0_8c390f6cd9" y="243.481679"/>
    </g>
    <g clip-path="url(#pbe9b96d8c1)">
     <use style="fill:#66ccff;" x="317.935896" xlink:href="#C0_0_8c390f6cd9" y="280.854945"/>
    </g>
    <g clip-path="url(#pbe9b96d8c1)">
     <use style="fill:#66ccff;" x="351.651297" xlink:href="#C0_0_8c390f6cd9" y="302.43962"/>
    </g>
    <g clip-path="url(#pbe9b96d8c1)">
     <use style="fill:#66ccff;" x="343.429709" xlink:href="#C0_0_8c390f6cd9" y="81.472225"/>
    </g>
    <g clip-path="url(#pbe9b96d8c1)">
     <use style="fill:#66ccff;" x="112.229524" xlink:href="#C0_0_8c390f6cd9" y="241.276596"/>
    </g>
    <g clip-path="url(#pbe9b96d8c1)">
     <use style="fill:#66ccff;" x="264.112675" xlink:href="#C0_0_8c390f6cd9" y="392.49462"/>
    </g>
    <g clip-path="url(#pbe9b96d8c1)">
     <use style="fill:#66ccff;" x="274.097513" xlink:href="#C0_0_8c390f6cd9" y="238.448898"/>
    </g>
    <g clip-path="url(#pbe9b96d8c1)">
     <use style="fill:#66ccff;" x="332.089475" xlink:href="#C0_0_8c390f6cd9" y="74.917625"/>
    </g>
    <g clip-path="url(#pbe9b96d8c1)">
     <use style="fill:#66ccff;" x="338.381819" xlink:href="#C0_0_8c390f6cd9" y="74.100138"/>
    </g>
    <g clip-path="url(#pbe9b96d8c1)">
     <use style="fill:#66ccff;" x="384.341581" xlink:href="#C0_0_8c390f6cd9" y="301.645044"/>
    </g>
    <g clip-path="url(#pbe9b96d8c1)">
     <use style="fill:#66ccff;" x="336.784836" xlink:href="#C0_0_8c390f6cd9" y="70.500913"/>
    </g>
    <g clip-path="url(#pbe9b96d8c1)">
     <use style="fill:#66ccff;" x="332.255758" xlink:href="#C0_0_8c390f6cd9" y="273.944667"/>
    </g>
    <g clip-path="url(#pbe9b96d8c1)">
     <use style="fill:#66ccff;" x="98.044996" xlink:href="#C0_0_8c390f6cd9" y="68.274513"/>
    </g>
    <g clip-path="url(#pbe9b96d8c1)">
     <use style="fill:#66ccff;" x="339.362798" xlink:href="#C0_0_8c390f6cd9" y="321.705085"/>
    </g>
    <g clip-path="url(#pbe9b96d8c1)">
     <use style="fill:#66ccff;" x="254.908584" xlink:href="#C0_0_8c390f6cd9" y="396.977205"/>
    </g>
    <g clip-path="url(#pbe9b96d8c1)">
     <use style="fill:#66ccff;" x="329.665154" xlink:href="#C0_0_8c390f6cd9" y="68.061994"/>
    </g>
    <g clip-path="url(#pbe9b96d8c1)">
     <use style="fill:#66ccff;" x="306.205412" xlink:href="#C0_0_8c390f6cd9" y="267.622852"/>
    </g>
    <g clip-path="url(#pbe9b96d8c1)">
     <use style="fill:#66ccff;" x="96.132215" xlink:href="#C0_0_8c390f6cd9" y="31.387214"/>
    </g>
    <g clip-path="url(#pbe9b96d8c1)">
     <use style="fill:#66ccff;" x="329.908159" xlink:href="#C0_0_8c390f6cd9" y="289.451666"/>
    </g>
    <g clip-path="url(#pbe9b96d8c1)">
     <use style="fill:#66ccff;" x="308.123978" xlink:href="#C0_0_8c390f6cd9" y="277.092416"/>
    </g>
    <g clip-path="url(#pbe9b96d8c1)">
     <use style="fill:#66ccff;" x="387.514991" xlink:href="#C0_0_8c390f6cd9" y="282.152597"/>
    </g>
    <g clip-path="url(#pbe9b96d8c1)">
     <use style="fill:#66ccff;" x="298.203757" xlink:href="#C0_0_8c390f6cd9" y="53.533552"/>
    </g>
    <g clip-path="url(#pbe9b96d8c1)">
     <use style="fill:#66ccff;" x="343.746899" xlink:href="#C0_0_8c390f6cd9" y="289.980184"/>
    </g>
    <g clip-path="url(#pbe9b96d8c1)">
     <use style="fill:#66ccff;" x="311.317997" xlink:href="#C0_0_8c390f6cd9" y="269.429358"/>
    </g>
    <g clip-path="url(#pbe9b96d8c1)">
     <use style="fill:#66ccff;" x="172.69345" xlink:href="#C0_0_8c390f6cd9" y="423.692308"/>
    </g>
    <g clip-path="url(#pbe9b96d8c1)">
     <use style="fill:#66ccff;" x="327.954449" xlink:href="#C0_0_8c390f6cd9" y="284.697767"/>
    </g>
    <g clip-path="url(#pbe9b96d8c1)">
     <use style="fill:#66ccff;" x="245.271291" xlink:href="#C0_0_8c390f6cd9" y="222.993696"/>
    </g>
    <g clip-path="url(#pbe9b96d8c1)">
     <use style="fill:#66ccff;" x="350.53391" xlink:href="#C0_0_8c390f6cd9" y="308.316292"/>
    </g>
    <g clip-path="url(#pbe9b96d8c1)">
     <use style="fill:#66ccff;" x="152.040668" xlink:href="#C0_0_8c390f6cd9" y="323.921182"/>
    </g>
    <g clip-path="url(#pbe9b96d8c1)">
     <use style="fill:#66ccff;" x="352.552885" xlink:href="#C0_0_8c390f6cd9" y="296.988342"/>
    </g>
    <g clip-path="url(#pbe9b96d8c1)">
     <use style="fill:#66ccff;" x="207.765838" xlink:href="#C0_0_8c390f6cd9" y="421.021173"/>
    </g>
    <g clip-path="url(#pbe9b96d8c1)">
     <use style="fill:#66ccff;" x="206.193747" xlink:href="#C0_0_8c390f6cd9" y="406.267479"/>
    </g>
    <g clip-path="url(#pbe9b96d8c1)">
     <use style="fill:#66ccff;" x="196.267667" xlink:href="#C0_0_8c390f6cd9" y="413.924866"/>
    </g>
    <g clip-path="url(#pbe9b96d8c1)">
     <use style="fill:#66ccff;" x="206.367468" xlink:href="#C0_0_8c390f6cd9" y="417.964298"/>
    </g>
    <g clip-path="url(#pbe9b96d8c1)">
     <use style="fill:#66ccff;" x="155.81832" xlink:href="#C0_0_8c390f6cd9" y="324.267976"/>
    </g>
    <g clip-path="url(#pbe9b96d8c1)">
     <use style="fill:#66ccff;" x="266.872801" xlink:href="#C0_0_8c390f6cd9" y="292.326315"/>
    </g>
    <g clip-path="url(#pbe9b96d8c1)">
     <use style="fill:#66ccff;" x="165.709705" xlink:href="#C0_0_8c390f6cd9" y="298.391205"/>
    </g>
    <g clip-path="url(#pbe9b96d8c1)">
     <use style="fill:#66ccff;" x="362.249814" xlink:href="#C0_0_8c390f6cd9" y="333.96756"/>
    </g>
    <g clip-path="url(#pbe9b96d8c1)">
     <use style="fill:#66ccff;" x="153.214394" xlink:href="#C0_0_8c390f6cd9" y="301.596338"/>
    </g>
    <g clip-path="url(#pbe9b96d8c1)">
     <use style="fill:#66ccff;" x="264.425331" xlink:href="#C0_0_8c390f6cd9" y="171.098599"/>
    </g>
    <g clip-path="url(#pbe9b96d8c1)">
     <use style="fill:#66ccff;" x="322.618377" xlink:href="#C0_0_8c390f6cd9" y="269.905811"/>
    </g>
    <g clip-path="url(#pbe9b96d8c1)">
     <use style="fill:#66ccff;" x="206.806687" xlink:href="#C0_0_8c390f6cd9" y="208.571542"/>
    </g>
    <g clip-path="url(#pbe9b96d8c1)">
     <use style="fill:#66ccff;" x="157.067065" xlink:href="#C0_0_8c390f6cd9" y="300.419082"/>
    </g>
    <g clip-path="url(#pbe9b96d8c1)">
     <use style="fill:#66ccff;" x="161.005307" xlink:href="#C0_0_8c390f6cd9" y="299.408966"/>
    </g>
    <g clip-path="url(#pbe9b96d8c1)">
     <use style="fill:#66ccff;" x="341.242256" xlink:href="#C0_0_8c390f6cd9" y="280.645723"/>
    </g>
    <g clip-path="url(#pbe9b96d8c1)">
     <use style="fill:#66ccff;" x="359.423417" xlink:href="#C0_0_8c390f6cd9" y="340.714287"/>
    </g>
    <g clip-path="url(#pbe9b96d8c1)">
     <use style="fill:#66ccff;" x="173.045693" xlink:href="#C0_0_8c390f6cd9" y="415.989927"/>
    </g>
    <g clip-path="url(#pbe9b96d8c1)">
     <use style="fill:#66ccff;" x="332.338208" xlink:href="#C0_0_8c390f6cd9" y="60.255478"/>
    </g>
    <g clip-path="url(#pbe9b96d8c1)">
     <use style="fill:#66ccff;" x="207.221019" xlink:href="#C0_0_8c390f6cd9" y="413.544188"/>
    </g>
    <g clip-path="url(#pbe9b96d8c1)">
     <use style="fill:#66ccff;" x="161.686512" xlink:href="#C0_0_8c390f6cd9" y="199.95653"/>
    </g>
    <g clip-path="url(#pbe9b96d8c1)">
     <use style="fill:#66ccff;" x="154.46655" xlink:href="#C0_0_8c390f6cd9" y="198.577962"/>
    </g>
    <g clip-path="url(#pbe9b96d8c1)">
     <use style="fill:#66ccff;" x="365.31176" xlink:href="#C0_0_8c390f6cd9" y="335.085413"/>
    </g>
    <g clip-path="url(#pbe9b96d8c1)">
     <use style="fill:#66ccff;" x="190.35498" xlink:href="#C0_0_8c390f6cd9" y="413.019472"/>
    </g>
    <g clip-path="url(#pbe9b96d8c1)">
     <use style="fill:#66ccff;" x="299.814634" xlink:href="#C0_0_8c390f6cd9" y="49.044406"/>
    </g>
    <g clip-path="url(#pbe9b96d8c1)">
     <use style="fill:#66ccff;" x="270.453547" xlink:href="#C0_0_8c390f6cd9" y="213.799077"/>
    </g>
    <g clip-path="url(#pbe9b96d8c1)">
     <use style="fill:#66ccff;" x="278.483173" xlink:href="#C0_0_8c390f6cd9" y="255.581385"/>
    </g>
    <g clip-path="url(#pbe9b96d8c1)">
     <use style="fill:#66ccff;" x="260.423736" xlink:href="#C0_0_8c390f6cd9" y="292.54588"/>
    </g>
    <g clip-path="url(#pbe9b96d8c1)">
     <use style="fill:#66ccff;" x="260.814582" xlink:href="#C0_0_8c390f6cd9" y="204.198367"/>
    </g>
    <g clip-path="url(#pbe9b96d8c1)">
     <use style="fill:#66ccff;" x="255.204254" xlink:href="#C0_0_8c390f6cd9" y="225.900595"/>
    </g>
    <g clip-path="url(#pbe9b96d8c1)">
     <use style="fill:#66ccff;" x="52.044715" xlink:href="#C0_0_8c390f6cd9" y="171.411966"/>
    </g>
    <g clip-path="url(#pbe9b96d8c1)">
     <use style="fill:#66ccff;" x="275.270462" xlink:href="#C0_0_8c390f6cd9" y="264.544978"/>
    </g>
    <g clip-path="url(#pbe9b96d8c1)">
     <use style="fill:#66ccff;" x="346.72101" xlink:href="#C0_0_8c390f6cd9" y="246.793671"/>
    </g>
    <g clip-path="url(#pbe9b96d8c1)">
     <use style="fill:#66ccff;" x="400.576223" xlink:href="#C0_0_8c390f6cd9" y="248.111238"/>
    </g>
    <g clip-path="url(#pbe9b96d8c1)">
     <use style="fill:#66ccff;" x="274.048877" xlink:href="#C0_0_8c390f6cd9" y="253.684059"/>
    </g>
    <g clip-path="url(#pbe9b96d8c1)">
     <use style="fill:#66ccff;" x="337.586125" xlink:href="#C0_0_8c390f6cd9" y="121.834784"/>
    </g>
    <g clip-path="url(#pbe9b96d8c1)">
     <use style="fill:#66ccff;" x="266.064173" xlink:href="#C0_0_8c390f6cd9" y="261.176918"/>
    </g>
    <g clip-path="url(#pbe9b96d8c1)">
     <use style="fill:#66ccff;" x="225.844608" xlink:href="#C0_0_8c390f6cd9" y="267.46865"/>
    </g>
    <g clip-path="url(#pbe9b96d8c1)">
     <use style="fill:#66ccff;" x="266.744919" xlink:href="#C0_0_8c390f6cd9" y="212.749028"/>
    </g>
    <g clip-path="url(#pbe9b96d8c1)">
     <use style="fill:#66ccff;" x="103.625116" xlink:href="#C0_0_8c390f6cd9" y="57.313513"/>
    </g>
    <g clip-path="url(#pbe9b96d8c1)">
     <use style="fill:#66ccff;" x="266.508069" xlink:href="#C0_0_8c390f6cd9" y="229.110375"/>
    </g>
    <g clip-path="url(#pbe9b96d8c1)">
     <use style="fill:#66ccff;" x="98.973215" xlink:href="#C0_0_8c390f6cd9" y="56.739591"/>
    </g>
    <g clip-path="url(#pbe9b96d8c1)">
     <use style="fill:#66ccff;" x="271.977468" xlink:href="#C0_0_8c390f6cd9" y="207.884452"/>
    </g>
    <g clip-path="url(#pbe9b96d8c1)">
     <use style="fill:#66ccff;" x="249.385349" xlink:href="#C0_0_8c390f6cd9" y="291.674084"/>
    </g>
    <g clip-path="url(#pbe9b96d8c1)">
     <use style="fill:#66ccff;" x="271.006489" xlink:href="#C0_0_8c390f6cd9" y="262.899558"/>
    </g>
    <g clip-path="url(#pbe9b96d8c1)">
     <use style="fill:#66ccff;" x="255.36275" xlink:href="#C0_0_8c390f6cd9" y="291.149099"/>
    </g>
    <g clip-path="url(#pbe9b96d8c1)">
     <use style="fill:#66ccff;" x="262.796635" xlink:href="#C0_0_8c390f6cd9" y="227.939194"/>
    </g>
    <g clip-path="url(#pbe9b96d8c1)">
     <use style="fill:#66ccff;" x="146.263224" xlink:href="#C0_0_8c390f6cd9" y="368.970114"/>
    </g>
    <g clip-path="url(#pbe9b96d8c1)">
     <use style="fill:#66ccff;" x="267.920402" xlink:href="#C0_0_8c390f6cd9" y="284.36816"/>
    </g>
    <g clip-path="url(#pbe9b96d8c1)">
     <use style="fill:#66ccff;" x="354.622806" xlink:href="#C0_0_8c390f6cd9" y="340.508776"/>
    </g>
    <g clip-path="url(#pbe9b96d8c1)">
     <use style="fill:#66ccff;" x="249.143868" xlink:href="#C0_0_8c390f6cd9" y="421.184725"/>
    </g>
    <g clip-path="url(#pbe9b96d8c1)">
     <use style="fill:#66ccff;" x="268.395897" xlink:href="#C0_0_8c390f6cd9" y="206.400212"/>
    </g>
    <g clip-path="url(#pbe9b96d8c1)">
     <use style="fill:#66ccff;" x="349.137129" xlink:href="#C0_0_8c390f6cd9" y="247.611072"/>
    </g>
    <g clip-path="url(#pbe9b96d8c1)">
     <use style="fill:#66ccff;" x="359.402112" xlink:href="#C0_0_8c390f6cd9" y="328.477932"/>
    </g>
    <g clip-path="url(#pbe9b96d8c1)">
     <use style="fill:#66ccff;" x="241.789775" xlink:href="#C0_0_8c390f6cd9" y="404.203014"/>
    </g>
    <g clip-path="url(#pbe9b96d8c1)">
     <use style="fill:#66ccff;" x="362.91827" xlink:href="#C0_0_8c390f6cd9" y="341.902112"/>
    </g>
    <g clip-path="url(#pbe9b96d8c1)">
     <use style="fill:#66ccff;" x="165.361564" xlink:href="#C0_0_8c390f6cd9" y="404.615159"/>
    </g>
    <g clip-path="url(#pbe9b96d8c1)">
     <use style="fill:#66ccff;" x="7.854436" xlink:href="#C0_0_8c390f6cd9" y="268.829778"/>
    </g>
    <g clip-path="url(#pbe9b96d8c1)">
     <use style="fill:#66ccff;" x="244.023912" xlink:href="#C0_0_8c390f6cd9" y="423.091938"/>
    </g>
    <g clip-path="url(#pbe9b96d8c1)">
     <use style="fill:#66ccff;" x="191.765021" xlink:href="#C0_0_8c390f6cd9" y="402.171087"/>
    </g>
    <g clip-path="url(#pbe9b96d8c1)">
     <use style="fill:#66ccff;" x="269.240805" xlink:href="#C0_0_8c390f6cd9" y="171.862951"/>
    </g>
    <g clip-path="url(#pbe9b96d8c1)">
     <use style="fill:#66ccff;" x="355.081299" xlink:href="#C0_0_8c390f6cd9" y="327.017305"/>
    </g>
    <g clip-path="url(#pbe9b96d8c1)">
     <use style="fill:#66ccff;" x="143.409573" xlink:href="#C0_0_8c390f6cd9" y="185.015744"/>
    </g>
    <g clip-path="url(#pbe9b96d8c1)">
     <use style="fill:#66ccff;" x="269.649992" xlink:href="#C0_0_8c390f6cd9" y="285.08263"/>
    </g>
    <g clip-path="url(#pbe9b96d8c1)">
     <use style="fill:#66ccff;" x="360.791819" xlink:href="#C0_0_8c390f6cd9" y="337.452027"/>
    </g>
    <g clip-path="url(#pbe9b96d8c1)">
     <use style="fill:#66ccff;" x="263.539226" xlink:href="#C0_0_8c390f6cd9" y="282.560747"/>
    </g>
    <g clip-path="url(#pbe9b96d8c1)">
     <use style="fill:#66ccff;" x="387.02311" xlink:href="#C0_0_8c390f6cd9" y="281.252912"/>
    </g>
    <g clip-path="url(#pbe9b96d8c1)">
     <use style="fill:#66ccff;" x="246.804312" xlink:href="#C0_0_8c390f6cd9" y="401.729854"/>
    </g>
    <g clip-path="url(#pbe9b96d8c1)">
     <use style="fill:#66ccff;" x="240.609047" xlink:href="#C0_0_8c390f6cd9" y="421.353975"/>
    </g>
    <g clip-path="url(#pbe9b96d8c1)">
     <use style="fill:#66ccff;" x="389.307595" xlink:href="#C0_0_8c390f6cd9" y="293.406816"/>
    </g>
    <g clip-path="url(#pbe9b96d8c1)">
     <use style="fill:#66ccff;" x="259.006267" xlink:href="#C0_0_8c390f6cd9" y="281.405846"/>
    </g>
    <g clip-path="url(#pbe9b96d8c1)">
     <use style="fill:#66ccff;" x="263.084716" xlink:href="#C0_0_8c390f6cd9" y="392.921662"/>
    </g>
    <g clip-path="url(#pbe9b96d8c1)">
     <use style="fill:#66ccff;" x="172.28726" xlink:href="#C0_0_8c390f6cd9" y="393.752183"/>
    </g>
    <g clip-path="url(#pbe9b96d8c1)">
     <use style="fill:#66ccff;" x="80.977479" xlink:href="#C0_0_8c390f6cd9" y="92.334313"/>
    </g>
   </g>
   <g id="LineCollection_1">
    <path clip-path="url(#pbe9b96d8c1)" d="M 350.15029 339.077124 
L 355.081299 327.017305 
" style="fill:none;stroke:#999999;"/>
    <path clip-path="url(#pbe9b96d8c1)" d="M 253.490613 279.501536 
L 249.385349 291.674084 
" style="fill:none;stroke:#999999;"/>
    <path clip-path="url(#pbe9b96d8c1)" d="M 253.490613 279.501536 
L 248.205303 277.675686 
L 238.083633 274.114788 
L 230.651162 270.657843 
L 225.844608 267.46865 
" style="fill:none;stroke:#999999;"/>
    <path clip-path="url(#pbe9b96d8c1)" d="M 253.490613 279.501536 
L 259.006267 281.405846 
" style="fill:none;stroke:#999999;"/>
    <path clip-path="url(#pbe9b96d8c1)" d="M 350.049194 244.312999 
L 349.137129 247.611072 
" style="fill:none;stroke:#999999;"/>
    <path clip-path="url(#pbe9b96d8c1)" d="M 338.947087 288.42581 
L 343.746899 289.980184 
" style="fill:none;stroke:#999999;"/>
    <path clip-path="url(#pbe9b96d8c1)" d="M 338.947087 288.42581 
L 334.580872 287.010856 
" style="fill:none;stroke:#999999;"/>
    <path clip-path="url(#pbe9b96d8c1)" d="M 338.947087 288.42581 
L 341.242256 280.645723 
" style="fill:none;stroke:#999999;"/>
    <path clip-path="url(#pbe9b96d8c1)" d="M 185.14034 387.97503 
L 185.446278 386.109452 
L 188.835048 376.351089 
L 192.658675 369.87567 
L 196.36145 364.776135 
L 199.055496 357.113368 
L 203.404384 340.774048 
L 206.698206 325.955625 
L 210.031182 315.220475 
L 214.708478 304.828892 
L 217.40951 297.875177 
L 218.917165 292.220835 
L 219.840332 286.218561 
L 221.569366 275.943638 
L 223.930166 270.592535 
L 225.844608 267.46865 
" style="fill:none;stroke:#999999;"/>
    <path clip-path="url(#pbe9b96d8c1)" d="M 185.14034 387.97503 
L 179.533224 387.384809 
" style="fill:none;stroke:#999999;"/>
    <path clip-path="url(#pbe9b96d8c1)" d="M 185.14034 387.97503 
L 186.517447 391.600732 
L 190.46961 393.880984 
L 196.616871 397.195787 
L 202.763019 400.23921 
L 205.378355 403.723322 
L 206.193747 406.267479 
" style="fill:none;stroke:#999999;"/>
    <path clip-path="url(#pbe9b96d8c1)" d="M 377.460145 257.177737 
L 378.823335 261.924621 
L 382.552821 270.726633 
L 385.916724 279.223771 
L 387.02311 281.252912 
" style="fill:none;stroke:#999999;"/>
    <path clip-path="url(#pbe9b96d8c1)" d="M 377.460145 257.177737 
L 353.588099 249.113999 
" style="fill:none;stroke:#999999;"/>
    <path clip-path="url(#pbe9b96d8c1)" d="M 377.460145 257.177737 
L 377.314109 256.665508 
L 375.313016 249.08678 
L 372.353027 239.34497 
L 369.460853 231.15487 
L 368.461047 224.755029 
L 365.561613 215.839691 
L 364.215359 211.200869 
L 364.290777 208.460411 
L 365.979245 205.548698 
L 370.074432 198.889368 
L 373.458578 193.944632 
L 375.393151 189.686438 
L 380.801751 179.188665 
L 390.821599 161.409253 
L 395.671127 152.157677 
L 396.988696 148.732738 
L 396.281132 145.586595 
L 394.545523 143.639702 
L 389.530126 141.570657 
L 379.240245 137.64192 
L 368.639082 133.611284 
L 359.235684 129.673609 
L 355.112928 128.526037 
L 341.901269 123.540983 
L 337.586125 121.834784 
" style="fill:none;stroke:#999999;"/>
    <path clip-path="url(#pbe9b96d8c1)" d="M 353.588099 249.113999 
L 349.137129 247.611072 
" style="fill:none;stroke:#999999;"/>
    <path clip-path="url(#pbe9b96d8c1)" d="M 353.588099 249.113999 
L 354.646883 245.449376 
" style="fill:none;stroke:#999999;"/>
    <path clip-path="url(#pbe9b96d8c1)" d="M 353.588099 249.113999 
L 377.460145 257.177737 
" style="fill:none;stroke:#999999;"/>
    <path clip-path="url(#pbe9b96d8c1)" d="M 323.238852 232.120552 
L 319.705994 238.349332 
L 315.539866 247.264374 
L 311.722019 255.074227 
" style="fill:none;stroke:#999999;"/>
    <path clip-path="url(#pbe9b96d8c1)" d="M 358.927223 342.069724 
L 359.423417 340.714287 
" style="fill:none;stroke:#999999;"/>
    <path clip-path="url(#pbe9b96d8c1)" d="M 313.125285 279.009882 
L 317.935896 280.854945 
" style="fill:none;stroke:#999999;"/>
    <path clip-path="url(#pbe9b96d8c1)" d="M 313.125285 279.009882 
L 308.123978 277.092416 
" style="fill:none;stroke:#999999;"/>
    <path clip-path="url(#pbe9b96d8c1)" d="M 313.125285 279.009882 
L 316.09678 271.5752 
" style="fill:none;stroke:#999999;"/>
    <path clip-path="url(#pbe9b96d8c1)" d="M 255.927259 411.623368 
L 254.908584 396.977205 
" style="fill:none;stroke:#999999;"/>
    <path clip-path="url(#pbe9b96d8c1)" d="M 140.031795 276.513428 
L 142.197112 260.596579 
L 144.306126 243.481679 
" style="fill:none;stroke:#999999;"/>
    <path clip-path="url(#pbe9b96d8c1)" d="M 260.738031 412.840139 
L 264.112675 392.49462 
" style="fill:none;stroke:#999999;"/>
    <path clip-path="url(#pbe9b96d8c1)" d="M 334.580872 287.010856 
L 338.947087 288.42581 
" style="fill:none;stroke:#999999;"/>
    <path clip-path="url(#pbe9b96d8c1)" d="M 334.580872 287.010856 
L 337.147504 278.830669 
" style="fill:none;stroke:#999999;"/>
    <path clip-path="url(#pbe9b96d8c1)" d="M 334.580872 287.010856 
L 330.761049 285.77458 
L 327.954449 284.697767 
" style="fill:none;stroke:#999999;"/>
    <path clip-path="url(#pbe9b96d8c1)" d="M 346.015687 282.411973 
L 343.746899 289.980184 
" style="fill:none;stroke:#999999;"/>
    <path clip-path="url(#pbe9b96d8c1)" d="M 137.091736 43.974307 
L 139.544871 41.38138 
" style="fill:none;stroke:#999999;"/>
    <path clip-path="url(#pbe9b96d8c1)" d="M 137.091736 43.974307 
L 137.800685 47.915205 
L 139.779871 50.969509 
L 143.942555 51.853571 
L 151.834173 52.82802 
L 156.814832 55.093126 
L 160.353002 57.164248 
L 162.189598 58.619131 
L 165.119051 59.17949 
L 166.779136 59.920523 
L 167.647847 62.102297 
L 169.057344 67.393115 
L 173.143318 77.711715 
L 175.603369 82.15043 
L 178.288566 87.892119 
L 180.961154 92.37071 
L 187.445164 105.191802 
L 189.373575 107.277374 
L 191.467163 108.941297 
L 192.300304 111.839037 
L 193.803246 113.802859 
L 194.712602 115.772612 
L 196.793486 124.720398 
L 197.470624 128.798923 
L 197.343324 133.011484 
L 197.070614 139.624334 
L 196.640325 147.419598 
L 196.242599 150.076021 
L 197.362394 151.875672 
L 200.507826 152.813476 
L 208.066806 154.379174 
L 217.370679 156.770649 
L 222.134684 158.407872 
L 223.3706 159.153131 
L 223.298168 160.459082 
L 221.476743 164.646582 
L 218.660321 171.286478 
L 214.232861 181.942146 
L 211.521657 190.559819 
L 210.126619 195.121046 
L 206.806687 208.571542 
" style="fill:none;stroke:#999999;"/>
    <path clip-path="url(#pbe9b96d8c1)" d="M 137.091736 43.974307 
L 131.370876 50.021201 
L 116.991497 52.324407 
L 114.933435 54.057229 
" style="fill:none;stroke:#999999;"/>
    <path clip-path="url(#pbe9b96d8c1)" d="M 321.622905 158.370099 
L 317.030563 156.492188 
" style="fill:none;stroke:#999999;"/>
    <path clip-path="url(#pbe9b96d8c1)" d="M 321.622905 158.370099 
L 326.022909 160.169162 
" style="fill:none;stroke:#999999;"/>
    <path clip-path="url(#pbe9b96d8c1)" d="M 321.622905 158.370099 
L 325.46549 152.569504 
" style="fill:none;stroke:#999999;"/>
    <path clip-path="url(#pbe9b96d8c1)" d="M 321.622905 158.370099 
L 321.546475 158.483941 
L 319.542236 161.796183 
" style="fill:none;stroke:#999999;"/>
    <path clip-path="url(#pbe9b96d8c1)" d="M 179.533224 387.384809 
L 185.14034 387.97503 
" style="fill:none;stroke:#999999;"/>
    <path clip-path="url(#pbe9b96d8c1)" d="M 179.533224 387.384809 
L 171.875213 384.660124 
L 160.687105 377.840113 
L 146.263224 368.970114 
" style="fill:none;stroke:#999999;"/>
    <path clip-path="url(#pbe9b96d8c1)" d="M 179.533224 387.384809 
L 175.878811 390.829695 
L 172.28726 393.752183 
" style="fill:none;stroke:#999999;"/>
    <path clip-path="url(#pbe9b96d8c1)" d="M 325.46549 152.569504 
L 321.156552 150.378605 
" style="fill:none;stroke:#999999;"/>
    <path clip-path="url(#pbe9b96d8c1)" d="M 325.46549 152.569504 
L 321.622905 158.370099 
" style="fill:none;stroke:#999999;"/>
    <path clip-path="url(#pbe9b96d8c1)" d="M 325.46549 152.569504 
L 329.173527 154.352883 
" style="fill:none;stroke:#999999;"/>
    <path clip-path="url(#pbe9b96d8c1)" d="M 246.171302 215.949715 
L 246.137477 217.00005 
L 245.387509 222.425536 
L 245.271291 222.993696 
" style="fill:none;stroke:#999999;"/>
    <path clip-path="url(#pbe9b96d8c1)" d="M 246.171302 215.949715 
L 255.800007 181.316567 
L 264.425331 171.098599 
" style="fill:none;stroke:#999999;"/>
    <path clip-path="url(#pbe9b96d8c1)" d="M 246.171302 215.949715 
L 206.806687 208.571542 
" style="fill:none;stroke:#999999;"/>
    <path clip-path="url(#pbe9b96d8c1)" d="M 139.544871 41.38138 
L 137.091736 43.974307 
" style="fill:none;stroke:#999999;"/>
    <path clip-path="url(#pbe9b96d8c1)" d="M 139.544871 41.38138 
L 154.35689 44.995727 
L 165.86827 47.81107 
L 182.039106 47.515463 
L 194.752398 40.862296 
L 201.021149 37.691649 
L 204.010363 37.262768 
L 208.029506 37.08851 
L 222.005712 36.105522 
L 224.794241 36.02917 
" style="fill:none;stroke:#999999;"/>
    <path clip-path="url(#pbe9b96d8c1)" d="M 114.933435 54.057229 
L 116.991497 52.324407 
L 131.370876 50.021201 
L 137.091736 43.974307 
" style="fill:none;stroke:#999999;"/>
    <path clip-path="url(#pbe9b96d8c1)" d="M 114.933435 54.057229 
L 104.479818 62.85702 
L 98.044996 68.274513 
" style="fill:none;stroke:#999999;"/>
    <path clip-path="url(#pbe9b96d8c1)" d="M 114.933435 54.057229 
L 114.969116 52.714499 
L 115.236501 49.842932 
L 114.944621 46.132103 
L 113.956029 43.513754 
L 110.944247 38.505448 
L 107.67652 33.388234 
L 99.27629 33.472001 
L 96.132215 31.387214 
" style="fill:none;stroke:#999999;"/>
    <path clip-path="url(#pbe9b96d8c1)" d="M 323.186744 282.870055 
L 327.392221 271.71569 
" style="fill:none;stroke:#999999;"/>
    <path clip-path="url(#pbe9b96d8c1)" d="M 323.186744 282.870055 
L 317.935896 280.854945 
" style="fill:none;stroke:#999999;"/>
    <path clip-path="url(#pbe9b96d8c1)" d="M 323.186744 282.870055 
L 327.954449 284.697767 
" style="fill:none;stroke:#999999;"/>
    <path clip-path="url(#pbe9b96d8c1)" d="M 327.494906 294.454459 
L 351.651297 302.43962 
" style="fill:none;stroke:#999999;"/>
    <path clip-path="url(#pbe9b96d8c1)" d="M 250.640222 399.499461 
L 250.913209 411.29385 
L 249.143868 421.184725 
" style="fill:none;stroke:#999999;"/>
    <path clip-path="url(#pbe9b96d8c1)" d="M 250.640222 399.499461 
L 252.900536 398.186189 
L 254.908584 396.977205 
" style="fill:none;stroke:#999999;"/>
    <path clip-path="url(#pbe9b96d8c1)" d="M 250.640222 399.499461 
L 246.804312 401.729854 
" style="fill:none;stroke:#999999;"/>
    <path clip-path="url(#pbe9b96d8c1)" d="M 268.864954 176.384938 
L 269.240805 171.862951 
" style="fill:none;stroke:#999999;"/>
    <path clip-path="url(#pbe9b96d8c1)" d="M 268.864954 176.384938 
L 264.778672 175.718288 
" style="fill:none;stroke:#999999;"/>
    <path clip-path="url(#pbe9b96d8c1)" d="M 268.864954 176.384938 
L 267.851566 185.856376 
" style="fill:none;stroke:#999999;"/>
    <path clip-path="url(#pbe9b96d8c1)" d="M 337.147504 278.830669 
L 334.580872 287.010856 
" style="fill:none;stroke:#999999;"/>
    <path clip-path="url(#pbe9b96d8c1)" d="M 317.030563 156.492188 
L 321.156552 150.378605 
" style="fill:none;stroke:#999999;"/>
    <path clip-path="url(#pbe9b96d8c1)" d="M 317.030563 156.492188 
L 310.483555 165.245329 
L 298.841515 170.300169 
L 294.571322 169.92293 
L 270.560127 165.438294 
L 268.106669 166.735768 
L 264.425331 171.098599 
" style="fill:none;stroke:#999999;"/>
    <path clip-path="url(#pbe9b96d8c1)" d="M 317.030563 156.492188 
L 321.622905 158.370099 
" style="fill:none;stroke:#999999;"/>
    <path clip-path="url(#pbe9b96d8c1)" d="M 267.851566 185.856376 
L 268.864954 176.384938 
" style="fill:none;stroke:#999999;"/>
    <path clip-path="url(#pbe9b96d8c1)" d="M 329.173527 154.352883 
L 330.129558 154.811763 
" style="fill:none;stroke:#999999;"/>
    <path clip-path="url(#pbe9b96d8c1)" d="M 329.173527 154.352883 
L 325.46549 152.569504 
" style="fill:none;stroke:#999999;"/>
    <path clip-path="url(#pbe9b96d8c1)" d="M 329.173527 154.352883 
L 326.548822 157.67458 
" style="fill:none;stroke:#999999;"/>
    <path clip-path="url(#pbe9b96d8c1)" d="M 319.542236 161.796183 
L 321.546475 158.483941 
L 321.622905 158.370099 
" style="fill:none;stroke:#999999;"/>
    <path clip-path="url(#pbe9b96d8c1)" d="M 264.778672 175.718288 
L 268.864954 176.384938 
" style="fill:none;stroke:#999999;"/>
    <path clip-path="url(#pbe9b96d8c1)" d="M 224.794241 36.02917 
L 222.005712 36.105522 
L 208.029506 37.08851 
L 204.010363 37.262768 
L 201.021149 37.691649 
L 194.752398 40.862296 
L 182.039106 47.515463 
L 165.86827 47.81107 
L 154.35689 44.995727 
L 139.544871 41.38138 
" style="fill:none;stroke:#999999;"/>
    <path clip-path="url(#pbe9b96d8c1)" d="M 224.794241 36.02917 
L 227.460809 35.945959 
L 228.060086 35.876964 
L 230.302266 35.62192 
L 236.792979 35.177368 
L 242.737395 35.033888 
L 248.661082 34.08453 
L 255.916863 35.900287 
L 257.804331 36.582469 
L 270.133282 41.04026 
L 279.135154 43.169648 
L 285.312912 44.351616 
L 296.297002 47.926268 
L 298.023543 48.345122 
L 299.814634 49.044406 
" style="fill:none;stroke:#999999;"/>
    <path clip-path="url(#pbe9b96d8c1)" d="M 344.985055 33.734777 
L 348.857156 41.780956 
L 354.409481 47.362958 
L 357.803634 57.470323 
L 357.702775 61.459735 
L 354.157837 68.352638 
L 346.961157 80.175183 
L 343.429709 81.472225 
" style="fill:none;stroke:#999999;"/>
    <path clip-path="url(#pbe9b96d8c1)" d="M 344.985055 33.734777 
L 345.26475 32.580197 
L 349.186218 21.880891 
" style="fill:none;stroke:#999999;"/>
    <path clip-path="url(#pbe9b96d8c1)" d="M 344.985055 33.734777 
L 341.671045 41.869203 
L 338.152572 47.454975 
L 335.370015 50.812201 
L 332.412612 58.834805 
L 332.338208 60.255478 
" style="fill:none;stroke:#999999;"/>
    <path clip-path="url(#pbe9b96d8c1)" d="M 326.022909 160.169162 
L 321.622905 158.370099 
" style="fill:none;stroke:#999999;"/>
    <path clip-path="url(#pbe9b96d8c1)" d="M 311.722019 255.074227 
L 315.539866 247.264374 
L 319.705994 238.349332 
L 323.238852 232.120552 
" style="fill:none;stroke:#999999;"/>
    <path clip-path="url(#pbe9b96d8c1)" d="M 311.722019 255.074227 
L 300.58758 250.452629 
L 290.577697 247.305902 
L 281.638392 243.405365 
L 274.097513 238.448898 
" style="fill:none;stroke:#999999;"/>
    <path clip-path="url(#pbe9b96d8c1)" d="M 311.722019 255.074227 
L 322.615099 259.462371 
L 324.942899 258.574823 
L 333.674755 262.776203 
L 340.504504 265.476548 
L 342.443051 267.452127 
L 343.469252 268.275384 
L 347.862191 269.988903 
L 355.503245 272.918558 
L 363.957713 276.289123 
L 368.710593 278.057168 
L 373.349747 280.482198 
L 377.057918 282.738866 
L 380.976906 285.020879 
L 382.682558 284.76631 
L 387.02311 281.252912 
" style="fill:none;stroke:#999999;"/>
    <path clip-path="url(#pbe9b96d8c1)" d="M 326.548822 157.67458 
L 329.173527 154.352883 
" style="fill:none;stroke:#999999;"/>
    <path clip-path="url(#pbe9b96d8c1)" d="M 327.392221 271.71569 
L 323.186744 282.870055 
" style="fill:none;stroke:#999999;"/>
    <path clip-path="url(#pbe9b96d8c1)" d="M 330.129558 154.811763 
L 329.173527 154.352883 
" style="fill:none;stroke:#999999;"/>
    <path clip-path="url(#pbe9b96d8c1)" d="M 269.71603 168.412584 
L 269.240805 171.862951 
" style="fill:none;stroke:#999999;"/>
    <path clip-path="url(#pbe9b96d8c1)" d="M 94.131997 28.28303 
L 95.319499 30.847707 
L 96.132215 31.387214 
" style="fill:none;stroke:#999999;"/>
    <path clip-path="url(#pbe9b96d8c1)" d="M 159.768679 324.629197 
L 155.81832 324.267976 
" style="fill:none;stroke:#999999;"/>
    <path clip-path="url(#pbe9b96d8c1)" d="M 159.768679 324.629197 
L 161.005307 299.408966 
" style="fill:none;stroke:#999999;"/>
    <path clip-path="url(#pbe9b96d8c1)" d="M 159.768679 324.629197 
L 164.573135 325.069127 
L 165.709705 298.391205 
" style="fill:none;stroke:#999999;"/>
    <path clip-path="url(#pbe9b96d8c1)" d="M 316.09678 271.5752 
L 313.125285 279.009882 
" style="fill:none;stroke:#999999;"/>
    <path clip-path="url(#pbe9b96d8c1)" d="M 358.089537 13.556278 
L 349.186218 21.880891 
" style="fill:none;stroke:#999999;"/>
    <path clip-path="url(#pbe9b96d8c1)" d="M 358.089537 13.556278 
L 350.965024 10.786307 
L 345.712999 8.307692 
" style="fill:none;stroke:#999999;"/>
    <path clip-path="url(#pbe9b96d8c1)" d="M 364.24605 338.851874 
L 360.791819 337.452027 
" style="fill:none;stroke:#999999;"/>
    <path clip-path="url(#pbe9b96d8c1)" d="M 271.324293 172.194255 
L 269.240805 171.862951 
" style="fill:none;stroke:#999999;"/>
    <path clip-path="url(#pbe9b96d8c1)" d="M 349.186218 21.880891 
L 345.26475 32.580197 
L 344.985055 33.734777 
" style="fill:none;stroke:#999999;"/>
    <path clip-path="url(#pbe9b96d8c1)" d="M 349.186218 21.880891 
L 358.089537 13.556278 
" style="fill:none;stroke:#999999;"/>
    <path clip-path="url(#pbe9b96d8c1)" d="M 349.186218 21.880891 
L 345.42744 15.503891 
L 344.902204 12.223457 
L 345.712999 8.307692 
" style="fill:none;stroke:#999999;"/>
    <path clip-path="url(#pbe9b96d8c1)" d="M 345.712999 8.307692 
L 344.902204 12.223457 
L 345.42744 15.503891 
L 349.186218 21.880891 
" style="fill:none;stroke:#999999;"/>
    <path clip-path="url(#pbe9b96d8c1)" d="M 345.712999 8.307692 
L 350.965024 10.786307 
L 358.089537 13.556278 
" style="fill:none;stroke:#999999;"/>
    <path clip-path="url(#pbe9b96d8c1)" d="M 321.156552 150.378605 
L 317.030563 156.492188 
" style="fill:none;stroke:#999999;"/>
    <path clip-path="url(#pbe9b96d8c1)" d="M 321.156552 150.378605 
L 325.46549 152.569504 
" style="fill:none;stroke:#999999;"/>
    <path clip-path="url(#pbe9b96d8c1)" d="M 321.156552 150.378605 
L 333.071035 138.082397 
L 335.787378 130.797225 
L 337.586125 121.834784 
" style="fill:none;stroke:#999999;"/>
    <path clip-path="url(#pbe9b96d8c1)" d="M 75.713765 90.892539 
L 80.977479 92.334313 
" style="fill:none;stroke:#999999;"/>
    <path clip-path="url(#pbe9b96d8c1)" d="M 354.646883 245.449376 
L 353.588099 249.113999 
" style="fill:none;stroke:#999999;"/>
    <path clip-path="url(#pbe9b96d8c1)" d="M 144.306126 243.481679 
L 147.891616 231.23532 
L 149.150897 223.053819 
L 154.46655 198.577962 
" style="fill:none;stroke:#999999;"/>
    <path clip-path="url(#pbe9b96d8c1)" d="M 144.306126 243.481679 
L 142.197112 260.596579 
L 140.031795 276.513428 
" style="fill:none;stroke:#999999;"/>
    <path clip-path="url(#pbe9b96d8c1)" d="M 144.306126 243.481679 
L 134.55196 242.937634 
L 112.229524 241.276596 
" style="fill:none;stroke:#999999;"/>
    <path clip-path="url(#pbe9b96d8c1)" d="M 317.935896 280.854945 
L 322.618377 269.905811 
" style="fill:none;stroke:#999999;"/>
    <path clip-path="url(#pbe9b96d8c1)" d="M 317.935896 280.854945 
L 323.186744 282.870055 
" style="fill:none;stroke:#999999;"/>
    <path clip-path="url(#pbe9b96d8c1)" d="M 317.935896 280.854945 
L 313.125285 279.009882 
" style="fill:none;stroke:#999999;"/>
    <path clip-path="url(#pbe9b96d8c1)" d="M 351.651297 302.43962 
L 352.552885 296.988342 
" style="fill:none;stroke:#999999;"/>
    <path clip-path="url(#pbe9b96d8c1)" d="M 351.651297 302.43962 
L 327.494906 294.454459 
" style="fill:none;stroke:#999999;"/>
    <path clip-path="url(#pbe9b96d8c1)" d="M 351.651297 302.43962 
L 350.53391 308.316292 
" style="fill:none;stroke:#999999;"/>
    <path clip-path="url(#pbe9b96d8c1)" d="M 343.429709 81.472225 
L 338.381819 74.100138 
" style="fill:none;stroke:#999999;"/>
    <path clip-path="url(#pbe9b96d8c1)" d="M 343.429709 81.472225 
L 346.961157 80.175183 
L 354.157837 68.352638 
L 357.702775 61.459735 
L 357.803634 57.470323 
L 354.409481 47.362958 
L 348.857156 41.780956 
L 344.985055 33.734777 
" style="fill:none;stroke:#999999;"/>
    <path clip-path="url(#pbe9b96d8c1)" d="M 343.429709 81.472225 
L 343.225205 84.600054 
L 342.672524 90.894309 
L 340.520147 103.738854 
L 337.586125 121.834784 
" style="fill:none;stroke:#999999;"/>
    <path clip-path="url(#pbe9b96d8c1)" d="M 112.229524 241.276596 
L 134.55196 242.937634 
L 144.306126 243.481679 
" style="fill:none;stroke:#999999;"/>
    <path clip-path="url(#pbe9b96d8c1)" d="M 264.112675 392.49462 
L 260.738031 412.840139 
" style="fill:none;stroke:#999999;"/>
    <path clip-path="url(#pbe9b96d8c1)" d="M 264.112675 392.49462 
L 268.19928 390.796392 
L 277.145976 387.332419 
L 281.988041 384.397316 
L 286.909428 380.529336 
L 292.162811 374.083107 
L 298.123455 366.964254 
L 302.322418 362.25863 
L 304.230414 360.863231 
L 306.948103 360.170498 
L 313.456561 358.596592 
L 315.59086 357.509075 
L 320.767064 352.216951 
L 326.182093 344.215039 
L 332.29108 333.897778 
L 339.362798 321.705085 
" style="fill:none;stroke:#999999;"/>
    <path clip-path="url(#pbe9b96d8c1)" d="M 264.112675 392.49462 
L 263.084716 392.921662 
" style="fill:none;stroke:#999999;"/>
    <path clip-path="url(#pbe9b96d8c1)" d="M 274.097513 238.448898 
L 266.064173 261.176918 
" style="fill:none;stroke:#999999;"/>
    <path clip-path="url(#pbe9b96d8c1)" d="M 274.097513 238.448898 
L 274.027813 231.482449 
L 266.508069 229.110375 
" style="fill:none;stroke:#999999;"/>
    <path clip-path="url(#pbe9b96d8c1)" d="M 274.097513 238.448898 
L 281.638392 243.405365 
L 290.577697 247.305902 
L 300.58758 250.452629 
L 311.722019 255.074227 
" style="fill:none;stroke:#999999;"/>
    <path clip-path="url(#pbe9b96d8c1)" d="M 332.089475 74.917625 
L 333.591561 74.421177 
L 334.737153 74.367689 
L 336.731495 74.179689 
L 338.381819 74.100138 
" style="fill:none;stroke:#999999;"/>
    <path clip-path="url(#pbe9b96d8c1)" d="M 338.381819 74.100138 
L 336.731495 74.179689 
L 334.737153 74.367689 
L 333.591561 74.421177 
L 332.089475 74.917625 
" style="fill:none;stroke:#999999;"/>
    <path clip-path="url(#pbe9b96d8c1)" d="M 338.381819 74.100138 
L 336.784836 70.500913 
" style="fill:none;stroke:#999999;"/>
    <path clip-path="url(#pbe9b96d8c1)" d="M 338.381819 74.100138 
L 343.429709 81.472225 
" style="fill:none;stroke:#999999;"/>
    <path clip-path="url(#pbe9b96d8c1)" d="M 384.341581 301.645044 
L 382.070575 302.672593 
L 376.8531 303.834688 
L 369.844234 304.438041 
L 364.437448 304.403397 
L 357.213577 305.984577 
L 353.557672 306.731987 
L 350.53391 308.316292 
" style="fill:none;stroke:#999999;"/>
    <path clip-path="url(#pbe9b96d8c1)" d="M 384.341581 301.645044 
L 385.828969 298.727268 
L 385.885555 295.529842 
L 387.659377 294.179352 
L 389.307595 293.406816 
" style="fill:none;stroke:#999999;"/>
    <path clip-path="url(#pbe9b96d8c1)" d="M 336.784836 70.500913 
L 338.381819 74.100138 
" style="fill:none;stroke:#999999;"/>
    <path clip-path="url(#pbe9b96d8c1)" d="M 336.784836 70.500913 
L 334.343535 64.320686 
L 332.338208 60.255478 
" style="fill:none;stroke:#999999;"/>
    <path clip-path="url(#pbe9b96d8c1)" d="M 336.784836 70.500913 
L 332.431027 69.195724 
L 330.943158 68.583873 
L 329.665154 68.061994 
" style="fill:none;stroke:#999999;"/>
    <path clip-path="url(#pbe9b96d8c1)" d="M 332.255758 273.944667 
L 327.954449 284.697767 
" style="fill:none;stroke:#999999;"/>
    <path clip-path="url(#pbe9b96d8c1)" d="M 98.044996 68.274513 
L 98.973215 56.739591 
" style="fill:none;stroke:#999999;"/>
    <path clip-path="url(#pbe9b96d8c1)" d="M 98.044996 68.274513 
L 104.479818 62.85702 
L 114.933435 54.057229 
" style="fill:none;stroke:#999999;"/>
    <path clip-path="url(#pbe9b96d8c1)" d="M 98.044996 68.274513 
L 88.426474 76.371314 
L 80.977479 92.334313 
" style="fill:none;stroke:#999999;"/>
    <path clip-path="url(#pbe9b96d8c1)" d="M 339.362798 321.705085 
L 344.088718 316.196117 
L 350.53391 308.316292 
" style="fill:none;stroke:#999999;"/>
    <path clip-path="url(#pbe9b96d8c1)" d="M 339.362798 321.705085 
L 355.081299 327.017305 
" style="fill:none;stroke:#999999;"/>
    <path clip-path="url(#pbe9b96d8c1)" d="M 339.362798 321.705085 
L 332.29108 333.897778 
L 326.182093 344.215039 
L 320.767064 352.216951 
L 315.59086 357.509075 
L 313.456561 358.596592 
L 306.948103 360.170498 
L 304.230414 360.863231 
L 302.322418 362.25863 
L 298.123455 366.964254 
L 292.162811 374.083107 
L 286.909428 380.529336 
L 281.988041 384.397316 
L 277.145976 387.332419 
L 268.19928 390.796392 
L 264.112675 392.49462 
" style="fill:none;stroke:#999999;"/>
    <path clip-path="url(#pbe9b96d8c1)" d="M 254.908584 396.977205 
L 258.454163 394.845012 
L 263.084716 392.921662 
" style="fill:none;stroke:#999999;"/>
    <path clip-path="url(#pbe9b96d8c1)" d="M 254.908584 396.977205 
L 255.927259 411.623368 
" style="fill:none;stroke:#999999;"/>
    <path clip-path="url(#pbe9b96d8c1)" d="M 254.908584 396.977205 
L 252.900536 398.186189 
L 250.640222 399.499461 
" style="fill:none;stroke:#999999;"/>
    <path clip-path="url(#pbe9b96d8c1)" d="M 329.665154 68.061994 
L 330.943158 68.583873 
L 332.431027 69.195724 
L 336.784836 70.500913 
" style="fill:none;stroke:#999999;"/>
    <path clip-path="url(#pbe9b96d8c1)" d="M 329.665154 68.061994 
L 332.338208 60.255478 
" style="fill:none;stroke:#999999;"/>
    <path clip-path="url(#pbe9b96d8c1)" d="M 329.665154 68.061994 
L 328.46209 67.909288 
L 326.551028 66.771831 
L 324.066173 65.71928 
L 322.581417 64.785933 
L 321.129371 63.957258 
L 319.762365 63.084114 
L 318.507104 62.46185 
L 317.414509 61.800802 
L 316.43672 61.064294 
L 314.245456 58.978178 
L 312.425836 57.012722 
L 310.815493 55.552398 
L 308.511509 54.065104 
L 305.655444 51.985648 
L 303.515404 50.428861 
L 299.814634 49.044406 
" style="fill:none;stroke:#999999;"/>
    <path clip-path="url(#pbe9b96d8c1)" d="M 306.205412 267.622852 
L 302.882695 275.082039 
L 308.123978 277.092416 
" style="fill:none;stroke:#999999;"/>
    <path clip-path="url(#pbe9b96d8c1)" d="M 96.132215 31.387214 
L 95.319499 30.847707 
L 94.131997 28.28303 
" style="fill:none;stroke:#999999;"/>
    <path clip-path="url(#pbe9b96d8c1)" d="M 96.132215 31.387214 
L 99.27629 33.472001 
L 107.67652 33.388234 
L 110.944247 38.505448 
L 113.956029 43.513754 
L 114.944621 46.132103 
L 115.236501 49.842932 
L 114.969116 52.714499 
L 114.933435 54.057229 
" style="fill:none;stroke:#999999;"/>
    <path clip-path="url(#pbe9b96d8c1)" d="M 96.132215 31.387214 
L 95.426442 43.162224 
L 95.734535 44.21399 
L 97.182743 44.664778 
L 99.476822 44.851904 
L 99.895119 45.366267 
L 98.973215 56.739591 
" style="fill:none;stroke:#999999;"/>
    <path clip-path="url(#pbe9b96d8c1)" d="M 329.908159 289.451666 
L 352.552885 296.988342 
" style="fill:none;stroke:#999999;"/>
    <path clip-path="url(#pbe9b96d8c1)" d="M 308.123978 277.092416 
L 302.882695 275.082039 
L 306.205412 267.622852 
" style="fill:none;stroke:#999999;"/>
    <path clip-path="url(#pbe9b96d8c1)" d="M 308.123978 277.092416 
L 313.125285 279.009882 
" style="fill:none;stroke:#999999;"/>
    <path clip-path="url(#pbe9b96d8c1)" d="M 308.123978 277.092416 
L 311.317997 269.429358 
" style="fill:none;stroke:#999999;"/>
    <path clip-path="url(#pbe9b96d8c1)" d="M 387.514991 282.152597 
L 390.209941 287.089661 
L 389.307595 293.406816 
" style="fill:none;stroke:#999999;"/>
    <path clip-path="url(#pbe9b96d8c1)" d="M 387.514991 282.152597 
L 387.02311 281.252912 
" style="fill:none;stroke:#999999;"/>
    <path clip-path="url(#pbe9b96d8c1)" d="M 387.514991 282.152597 
L 400.576223 248.111238 
" style="fill:none;stroke:#999999;"/>
    <path clip-path="url(#pbe9b96d8c1)" d="M 298.203757 53.533552 
L 299.309608 49.514698 
L 299.814634 49.044406 
" style="fill:none;stroke:#999999;"/>
    <path clip-path="url(#pbe9b96d8c1)" d="M 343.746899 289.980184 
L 353.254416 293.059148 
L 352.552885 296.988342 
" style="fill:none;stroke:#999999;"/>
    <path clip-path="url(#pbe9b96d8c1)" d="M 343.746899 289.980184 
L 338.947087 288.42581 
" style="fill:none;stroke:#999999;"/>
    <path clip-path="url(#pbe9b96d8c1)" d="M 343.746899 289.980184 
L 346.015687 282.411973 
" style="fill:none;stroke:#999999;"/>
    <path clip-path="url(#pbe9b96d8c1)" d="M 311.317997 269.429358 
L 308.123978 277.092416 
" style="fill:none;stroke:#999999;"/>
    <path clip-path="url(#pbe9b96d8c1)" d="M 172.69345 423.692308 
L 173.009449 421.246713 
L 173.045693 415.989927 
" style="fill:none;stroke:#999999;"/>
    <path clip-path="url(#pbe9b96d8c1)" d="M 172.69345 423.692308 
L 180.143406 422.692413 
L 186.826978 421.362534 
L 192.951775 419.406605 
L 197.895495 417.924448 
L 203.871809 417.906817 
L 206.367468 417.964298 
" style="fill:none;stroke:#999999;"/>
    <path clip-path="url(#pbe9b96d8c1)" d="M 327.954449 284.697767 
L 323.186744 282.870055 
" style="fill:none;stroke:#999999;"/>
    <path clip-path="url(#pbe9b96d8c1)" d="M 327.954449 284.697767 
L 330.761049 285.77458 
L 334.580872 287.010856 
" style="fill:none;stroke:#999999;"/>
    <path clip-path="url(#pbe9b96d8c1)" d="M 327.954449 284.697767 
L 332.255758 273.944667 
" style="fill:none;stroke:#999999;"/>
    <path clip-path="url(#pbe9b96d8c1)" d="M 245.271291 222.993696 
L 244.365563 227.407895 
L 244.192089 232.383385 
L 244.281239 236.86679 
L 243.557368 240.469864 
L 241.681635 244.929295 
L 238.348955 251.399897 
L 235.972483 255.0211 
L 231.068091 260.575326 
L 227.271506 265.142786 
L 225.844608 267.46865 
" style="fill:none;stroke:#999999;"/>
    <path clip-path="url(#pbe9b96d8c1)" d="M 245.271291 222.993696 
L 253.199566 225.377875 
L 255.204254 225.900595 
" style="fill:none;stroke:#999999;"/>
    <path clip-path="url(#pbe9b96d8c1)" d="M 245.271291 222.993696 
L 245.387509 222.425536 
L 246.137477 217.00005 
L 246.171302 215.949715 
" style="fill:none;stroke:#999999;"/>
    <path clip-path="url(#pbe9b96d8c1)" d="M 350.53391 308.316292 
L 351.651297 302.43962 
" style="fill:none;stroke:#999999;"/>
    <path clip-path="url(#pbe9b96d8c1)" d="M 350.53391 308.316292 
L 344.088718 316.196117 
L 339.362798 321.705085 
" style="fill:none;stroke:#999999;"/>
    <path clip-path="url(#pbe9b96d8c1)" d="M 350.53391 308.316292 
L 353.557672 306.731987 
L 357.213577 305.984577 
L 364.437448 304.403397 
L 369.844234 304.438041 
L 376.8531 303.834688 
L 382.070575 302.672593 
L 384.341581 301.645044 
" style="fill:none;stroke:#999999;"/>
    <path clip-path="url(#pbe9b96d8c1)" d="M 152.040668 323.921182 
L 153.214394 301.596338 
" style="fill:none;stroke:#999999;"/>
    <path clip-path="url(#pbe9b96d8c1)" d="M 152.040668 323.921182 
L 155.81832 324.267976 
" style="fill:none;stroke:#999999;"/>
    <path clip-path="url(#pbe9b96d8c1)" d="M 152.040668 323.921182 
L 150.065739 334.960941 
L 147.945674 352.407093 
L 146.263224 368.970114 
" style="fill:none;stroke:#999999;"/>
    <path clip-path="url(#pbe9b96d8c1)" d="M 352.552885 296.988342 
L 351.651297 302.43962 
" style="fill:none;stroke:#999999;"/>
    <path clip-path="url(#pbe9b96d8c1)" d="M 352.552885 296.988342 
L 353.254416 293.059148 
L 343.746899 289.980184 
" style="fill:none;stroke:#999999;"/>
    <path clip-path="url(#pbe9b96d8c1)" d="M 352.552885 296.988342 
L 329.908159 289.451666 
" style="fill:none;stroke:#999999;"/>
    <path clip-path="url(#pbe9b96d8c1)" d="M 207.765838 421.021173 
L 206.834218 420.156551 
L 206.367468 417.964298 
" style="fill:none;stroke:#999999;"/>
    <path clip-path="url(#pbe9b96d8c1)" d="M 206.193747 406.267479 
L 201.317301 407.191675 
L 199.6581 406.870617 
L 200.008646 408.047959 
L 199.73409 410.202378 
L 199.116822 411.806143 
L 196.267667 413.924866 
" style="fill:none;stroke:#999999;"/>
    <path clip-path="url(#pbe9b96d8c1)" d="M 206.193747 406.267479 
L 205.378355 403.723322 
L 202.763019 400.23921 
L 196.616871 397.195787 
L 190.46961 393.880984 
L 186.517447 391.600732 
L 185.14034 387.97503 
" style="fill:none;stroke:#999999;"/>
    <path clip-path="url(#pbe9b96d8c1)" d="M 206.193747 406.267479 
L 207.061408 408.972652 
L 207.221019 413.544188 
" style="fill:none;stroke:#999999;"/>
    <path clip-path="url(#pbe9b96d8c1)" d="M 196.267667 413.924866 
L 190.35498 413.019472 
" style="fill:none;stroke:#999999;"/>
    <path clip-path="url(#pbe9b96d8c1)" d="M 196.267667 413.924866 
L 196.889225 414.020433 
L 204.442423 414.166375 
L 207.221019 413.544188 
" style="fill:none;stroke:#999999;"/>
    <path clip-path="url(#pbe9b96d8c1)" d="M 196.267667 413.924866 
L 199.116822 411.806143 
L 199.73409 410.202378 
L 200.008646 408.047959 
L 199.6581 406.870617 
L 201.317301 407.191675 
L 206.193747 406.267479 
" style="fill:none;stroke:#999999;"/>
    <path clip-path="url(#pbe9b96d8c1)" d="M 206.367468 417.964298 
L 206.834218 420.156551 
L 207.765838 421.021173 
" style="fill:none;stroke:#999999;"/>
    <path clip-path="url(#pbe9b96d8c1)" d="M 206.367468 417.964298 
L 207.258188 415.047732 
L 207.221019 413.544188 
" style="fill:none;stroke:#999999;"/>
    <path clip-path="url(#pbe9b96d8c1)" d="M 206.367468 417.964298 
L 203.871809 417.906817 
L 197.895495 417.924448 
L 192.951775 419.406605 
L 186.826978 421.362534 
L 180.143406 422.692413 
L 172.69345 423.692308 
" style="fill:none;stroke:#999999;"/>
    <path clip-path="url(#pbe9b96d8c1)" d="M 155.81832 324.267976 
L 152.040668 323.921182 
" style="fill:none;stroke:#999999;"/>
    <path clip-path="url(#pbe9b96d8c1)" d="M 155.81832 324.267976 
L 157.067065 300.419082 
" style="fill:none;stroke:#999999;"/>
    <path clip-path="url(#pbe9b96d8c1)" d="M 155.81832 324.267976 
L 159.768679 324.629197 
" style="fill:none;stroke:#999999;"/>
    <path clip-path="url(#pbe9b96d8c1)" d="M 266.872801 292.326315 
L 269.649992 285.08263 
" style="fill:none;stroke:#999999;"/>
    <path clip-path="url(#pbe9b96d8c1)" d="M 165.709705 298.391205 
L 164.573135 325.069127 
L 159.768679 324.629197 
" style="fill:none;stroke:#999999;"/>
    <path clip-path="url(#pbe9b96d8c1)" d="M 362.249814 333.96756 
L 360.791819 337.452027 
" style="fill:none;stroke:#999999;"/>
    <path clip-path="url(#pbe9b96d8c1)" d="M 362.249814 333.96756 
L 365.31176 335.085413 
" style="fill:none;stroke:#999999;"/>
    <path clip-path="url(#pbe9b96d8c1)" d="M 362.249814 333.96756 
L 363.865885 329.985583 
L 359.402112 328.477932 
" style="fill:none;stroke:#999999;"/>
    <path clip-path="url(#pbe9b96d8c1)" d="M 153.214394 301.596338 
L 152.040668 323.921182 
" style="fill:none;stroke:#999999;"/>
    <path clip-path="url(#pbe9b96d8c1)" d="M 264.425331 171.098599 
L 269.240805 171.862951 
" style="fill:none;stroke:#999999;"/>
    <path clip-path="url(#pbe9b96d8c1)" d="M 264.425331 171.098599 
L 255.800007 181.316567 
L 246.171302 215.949715 
" style="fill:none;stroke:#999999;"/>
    <path clip-path="url(#pbe9b96d8c1)" d="M 264.425331 171.098599 
L 268.106669 166.735768 
L 270.560127 165.438294 
L 294.571322 169.92293 
L 298.841515 170.300169 
L 310.483555 165.245329 
L 317.030563 156.492188 
" style="fill:none;stroke:#999999;"/>
    <path clip-path="url(#pbe9b96d8c1)" d="M 322.618377 269.905811 
L 317.935896 280.854945 
" style="fill:none;stroke:#999999;"/>
    <path clip-path="url(#pbe9b96d8c1)" d="M 206.806687 208.571542 
L 246.171302 215.949715 
" style="fill:none;stroke:#999999;"/>
    <path clip-path="url(#pbe9b96d8c1)" d="M 206.806687 208.571542 
L 161.686512 199.95653 
" style="fill:none;stroke:#999999;"/>
    <path clip-path="url(#pbe9b96d8c1)" d="M 206.806687 208.571542 
L 210.126619 195.121046 
L 211.521657 190.559819 
L 214.232861 181.942146 
L 218.660321 171.286478 
L 221.476743 164.646582 
L 223.298168 160.459082 
L 223.3706 159.153131 
L 222.134684 158.407872 
L 217.370679 156.770649 
L 208.066806 154.379174 
L 200.507826 152.813476 
L 197.362394 151.875672 
L 196.242599 150.076021 
L 196.640325 147.419598 
L 197.070614 139.624334 
L 197.343324 133.011484 
L 197.470624 128.798923 
L 196.793486 124.720398 
L 194.712602 115.772612 
L 193.803246 113.802859 
L 192.300304 111.839037 
L 191.467163 108.941297 
L 189.373575 107.277374 
L 187.445164 105.191802 
L 180.961154 92.37071 
L 178.288566 87.892119 
L 175.603369 82.15043 
L 173.143318 77.711715 
L 169.057344 67.393115 
L 167.647847 62.102297 
L 166.779136 59.920523 
L 165.119051 59.17949 
L 162.189598 58.619131 
L 160.353002 57.164248 
L 156.814832 55.093126 
L 151.834173 52.82802 
L 143.942555 51.853571 
L 139.779871 50.969509 
L 137.800685 47.915205 
L 137.091736 43.974307 
" style="fill:none;stroke:#999999;"/>
    <path clip-path="url(#pbe9b96d8c1)" d="M 157.067065 300.419082 
L 155.81832 324.267976 
" style="fill:none;stroke:#999999;"/>
    <path clip-path="url(#pbe9b96d8c1)" d="M 161.005307 299.408966 
L 159.768679 324.629197 
" style="fill:none;stroke:#999999;"/>
    <path clip-path="url(#pbe9b96d8c1)" d="M 341.242256 280.645723 
L 338.947087 288.42581 
" style="fill:none;stroke:#999999;"/>
    <path clip-path="url(#pbe9b96d8c1)" d="M 359.423417 340.714287 
L 362.91827 341.902112 
" style="fill:none;stroke:#999999;"/>
    <path clip-path="url(#pbe9b96d8c1)" d="M 359.423417 340.714287 
L 358.927223 342.069724 
" style="fill:none;stroke:#999999;"/>
    <path clip-path="url(#pbe9b96d8c1)" d="M 359.423417 340.714287 
L 360.791819 337.452027 
" style="fill:none;stroke:#999999;"/>
    <path clip-path="url(#pbe9b96d8c1)" d="M 173.045693 415.989927 
L 173.009449 421.246713 
L 172.69345 423.692308 
" style="fill:none;stroke:#999999;"/>
    <path clip-path="url(#pbe9b96d8c1)" d="M 173.045693 415.989927 
L 169.217435 417.404394 
L 166.32012 418.187657 
L 163.460759 418.172546 
L 161.659366 416.768975 
L 161.891941 413.259683 
L 162.668659 410.497731 
L 164.898184 405.458157 
L 165.361564 404.615159 
" style="fill:none;stroke:#999999;"/>
    <path clip-path="url(#pbe9b96d8c1)" d="M 173.045693 415.989927 
L 176.244229 414.137507 
L 178.29525 413.583981 
L 182.800453 412.739441 
L 186.821762 412.744564 
L 190.35498 413.019472 
" style="fill:none;stroke:#999999;"/>
    <path clip-path="url(#pbe9b96d8c1)" d="M 332.338208 60.255478 
L 334.343535 64.320686 
L 336.784836 70.500913 
" style="fill:none;stroke:#999999;"/>
    <path clip-path="url(#pbe9b96d8c1)" d="M 332.338208 60.255478 
L 332.412612 58.834805 
L 335.370015 50.812201 
L 338.152572 47.454975 
L 341.671045 41.869203 
L 344.985055 33.734777 
" style="fill:none;stroke:#999999;"/>
    <path clip-path="url(#pbe9b96d8c1)" d="M 332.338208 60.255478 
L 329.665154 68.061994 
" style="fill:none;stroke:#999999;"/>
    <path clip-path="url(#pbe9b96d8c1)" d="M 207.221019 413.544188 
L 204.442423 414.166375 
L 196.889225 414.020433 
L 196.267667 413.924866 
" style="fill:none;stroke:#999999;"/>
    <path clip-path="url(#pbe9b96d8c1)" d="M 207.221019 413.544188 
L 207.258188 415.047732 
L 206.367468 417.964298 
" style="fill:none;stroke:#999999;"/>
    <path clip-path="url(#pbe9b96d8c1)" d="M 207.221019 413.544188 
L 213.586254 412.521128 
L 223.082085 410.295654 
L 229.542747 408.365386 
L 241.789775 404.203014 
" style="fill:none;stroke:#999999;"/>
    <path clip-path="url(#pbe9b96d8c1)" d="M 207.221019 413.544188 
L 207.061408 408.972652 
L 206.193747 406.267479 
" style="fill:none;stroke:#999999;"/>
    <path clip-path="url(#pbe9b96d8c1)" d="M 161.686512 199.95653 
L 161.638012 193.668362 
L 162.650289 187.708837 
L 158.043862 187.26696 
L 152.910124 187.76241 
L 148.699107 186.649429 
L 143.409573 185.015744 
" style="fill:none;stroke:#999999;"/>
    <path clip-path="url(#pbe9b96d8c1)" d="M 161.686512 199.95653 
L 159.350168 199.509769 
L 154.46655 198.577962 
" style="fill:none;stroke:#999999;"/>
    <path clip-path="url(#pbe9b96d8c1)" d="M 161.686512 199.95653 
L 206.806687 208.571542 
" style="fill:none;stroke:#999999;"/>
    <path clip-path="url(#pbe9b96d8c1)" d="M 154.46655 198.577962 
L 74.988453 182.2569 
L 52.044715 171.411966 
" style="fill:none;stroke:#999999;"/>
    <path clip-path="url(#pbe9b96d8c1)" d="M 154.46655 198.577962 
L 149.150897 223.053819 
L 147.891616 231.23532 
L 144.306126 243.481679 
" style="fill:none;stroke:#999999;"/>
    <path clip-path="url(#pbe9b96d8c1)" d="M 154.46655 198.577962 
L 159.350168 199.509769 
L 161.686512 199.95653 
" style="fill:none;stroke:#999999;"/>
    <path clip-path="url(#pbe9b96d8c1)" d="M 365.31176 335.085413 
L 362.249814 333.96756 
" style="fill:none;stroke:#999999;"/>
    <path clip-path="url(#pbe9b96d8c1)" d="M 190.35498 413.019472 
L 196.267667 413.924866 
" style="fill:none;stroke:#999999;"/>
    <path clip-path="url(#pbe9b96d8c1)" d="M 190.35498 413.019472 
L 186.821762 412.744564 
L 182.800453 412.739441 
L 178.29525 413.583981 
L 176.244229 414.137507 
L 173.045693 415.989927 
" style="fill:none;stroke:#999999;"/>
    <path clip-path="url(#pbe9b96d8c1)" d="M 190.35498 413.019472 
L 190.421491 410.799284 
L 191.121107 404.754034 
L 191.765021 402.171087 
" style="fill:none;stroke:#999999;"/>
    <path clip-path="url(#pbe9b96d8c1)" d="M 299.814634 49.044406 
L 299.309608 49.514698 
L 298.203757 53.533552 
" style="fill:none;stroke:#999999;"/>
    <path clip-path="url(#pbe9b96d8c1)" d="M 299.814634 49.044406 
L 298.023543 48.345122 
L 296.297002 47.926268 
L 285.312912 44.351616 
L 279.135154 43.169648 
L 270.133282 41.04026 
L 257.804331 36.582469 
L 255.916863 35.900287 
L 248.661082 34.08453 
L 242.737395 35.033888 
L 236.792979 35.177368 
L 230.302266 35.62192 
L 228.060086 35.876964 
L 227.460809 35.945959 
L 224.794241 36.02917 
" style="fill:none;stroke:#999999;"/>
    <path clip-path="url(#pbe9b96d8c1)" d="M 299.814634 49.044406 
L 303.515404 50.428861 
L 305.655444 51.985648 
L 308.511509 54.065104 
L 310.815493 55.552398 
L 312.425836 57.012722 
L 314.245456 58.978178 
L 316.43672 61.064294 
L 317.414509 61.800802 
L 318.507104 62.46185 
L 319.762365 63.084114 
L 321.129371 63.957258 
L 322.581417 64.785933 
L 324.066173 65.71928 
L 326.551028 66.771831 
L 328.46209 67.909288 
L 329.665154 68.061994 
" style="fill:none;stroke:#999999;"/>
    <path clip-path="url(#pbe9b96d8c1)" d="M 270.453547 213.799077 
L 266.744919 212.749028 
" style="fill:none;stroke:#999999;"/>
    <path clip-path="url(#pbe9b96d8c1)" d="M 270.453547 213.799077 
L 266.508069 229.110375 
" style="fill:none;stroke:#999999;"/>
    <path clip-path="url(#pbe9b96d8c1)" d="M 270.453547 213.799077 
L 271.977468 207.884452 
" style="fill:none;stroke:#999999;"/>
    <path clip-path="url(#pbe9b96d8c1)" d="M 278.483173 255.581385 
L 275.270462 264.544978 
" style="fill:none;stroke:#999999;"/>
    <path clip-path="url(#pbe9b96d8c1)" d="M 260.423736 292.54588 
L 263.539226 282.560747 
" style="fill:none;stroke:#999999;"/>
    <path clip-path="url(#pbe9b96d8c1)" d="M 260.814582 204.198367 
L 255.204254 225.900595 
" style="fill:none;stroke:#999999;"/>
    <path clip-path="url(#pbe9b96d8c1)" d="M 255.204254 225.900595 
L 253.199566 225.377875 
L 245.271291 222.993696 
" style="fill:none;stroke:#999999;"/>
    <path clip-path="url(#pbe9b96d8c1)" d="M 255.204254 225.900595 
L 260.814582 204.198367 
" style="fill:none;stroke:#999999;"/>
    <path clip-path="url(#pbe9b96d8c1)" d="M 255.204254 225.900595 
L 261.672257 227.585364 
L 262.796635 227.939194 
" style="fill:none;stroke:#999999;"/>
    <path clip-path="url(#pbe9b96d8c1)" d="M 52.044715 171.411966 
L 74.988453 182.2569 
L 154.46655 198.577962 
" style="fill:none;stroke:#999999;"/>
    <path clip-path="url(#pbe9b96d8c1)" d="M 52.044715 171.411966 
L 55.305443 161.352935 
L 59.826261 151.452582 
L 71.398751 112.859298 
L 80.977479 92.334313 
" style="fill:none;stroke:#999999;"/>
    <path clip-path="url(#pbe9b96d8c1)" d="M 52.044715 171.411966 
L 49.144361 183.96153 
L 38.607534 217.549645 
L 24.845658 242.055878 
L 17.926178 256.88908 
L 12.837782 264.502779 
L 11.047221 266.725542 
L 7.854436 268.829778 
" style="fill:none;stroke:#999999;"/>
    <path clip-path="url(#pbe9b96d8c1)" d="M 275.270462 264.544978 
L 271.006489 262.899558 
" style="fill:none;stroke:#999999;"/>
    <path clip-path="url(#pbe9b96d8c1)" d="M 275.270462 264.544978 
L 278.483173 255.581385 
" style="fill:none;stroke:#999999;"/>
    <path clip-path="url(#pbe9b96d8c1)" d="M 275.270462 264.544978 
L 267.920402 284.36816 
" style="fill:none;stroke:#999999;"/>
    <path clip-path="url(#pbe9b96d8c1)" d="M 346.72101 246.793671 
L 349.137129 247.611072 
" style="fill:none;stroke:#999999;"/>
    <path clip-path="url(#pbe9b96d8c1)" d="M 400.576223 248.111238 
L 387.514991 282.152597 
" style="fill:none;stroke:#999999;"/>
    <path clip-path="url(#pbe9b96d8c1)" d="M 274.048877 253.684059 
L 271.006489 262.899558 
" style="fill:none;stroke:#999999;"/>
    <path clip-path="url(#pbe9b96d8c1)" d="M 337.586125 121.834784 
L 335.787378 130.797225 
L 333.071035 138.082397 
L 321.156552 150.378605 
" style="fill:none;stroke:#999999;"/>
    <path clip-path="url(#pbe9b96d8c1)" d="M 337.586125 121.834784 
L 340.520147 103.738854 
L 342.672524 90.894309 
L 343.225205 84.600054 
L 343.429709 81.472225 
" style="fill:none;stroke:#999999;"/>
    <path clip-path="url(#pbe9b96d8c1)" d="M 337.586125 121.834784 
L 341.901269 123.540983 
L 355.112928 128.526037 
L 359.235684 129.673609 
L 368.639082 133.611284 
L 379.240245 137.64192 
L 389.530126 141.570657 
L 394.545523 143.639702 
L 396.281132 145.586595 
L 396.988696 148.732738 
L 395.671127 152.157677 
L 390.821599 161.409253 
L 380.801751 179.188665 
L 375.393151 189.686438 
L 373.458578 193.944632 
L 370.074432 198.889368 
L 365.979245 205.548698 
L 364.290777 208.460411 
L 364.215359 211.200869 
L 365.561613 215.839691 
L 368.461047 224.755029 
L 369.460853 231.15487 
L 372.353027 239.34497 
L 375.313016 249.08678 
L 377.314109 256.665508 
L 377.460145 257.177737 
" style="fill:none;stroke:#999999;"/>
    <path clip-path="url(#pbe9b96d8c1)" d="M 266.064173 261.176918 
L 271.006489 262.899558 
" style="fill:none;stroke:#999999;"/>
    <path clip-path="url(#pbe9b96d8c1)" d="M 266.064173 261.176918 
L 259.006267 281.405846 
" style="fill:none;stroke:#999999;"/>
    <path clip-path="url(#pbe9b96d8c1)" d="M 266.064173 261.176918 
L 274.097513 238.448898 
" style="fill:none;stroke:#999999;"/>
    <path clip-path="url(#pbe9b96d8c1)" d="M 225.844608 267.46865 
L 227.271506 265.142786 
L 231.068091 260.575326 
L 235.972483 255.0211 
L 238.348955 251.399897 
L 241.681635 244.929295 
L 243.557368 240.469864 
L 244.281239 236.86679 
L 244.192089 232.383385 
L 244.365563 227.407895 
L 245.271291 222.993696 
" style="fill:none;stroke:#999999;"/>
    <path clip-path="url(#pbe9b96d8c1)" d="M 225.844608 267.46865 
L 230.651162 270.657843 
L 238.083633 274.114788 
L 248.205303 277.675686 
L 253.490613 279.501536 
" style="fill:none;stroke:#999999;"/>
    <path clip-path="url(#pbe9b96d8c1)" d="M 225.844608 267.46865 
L 223.930166 270.592535 
L 221.569366 275.943638 
L 219.840332 286.218561 
L 218.917165 292.220835 
L 217.40951 297.875177 
L 214.708478 304.828892 
L 210.031182 315.220475 
L 206.698206 325.955625 
L 203.404384 340.774048 
L 199.055496 357.113368 
L 196.36145 364.776135 
L 192.658675 369.87567 
L 188.835048 376.351089 
L 185.446278 386.109452 
L 185.14034 387.97503 
" style="fill:none;stroke:#999999;"/>
    <path clip-path="url(#pbe9b96d8c1)" d="M 266.744919 212.749028 
L 268.395897 206.400212 
" style="fill:none;stroke:#999999;"/>
    <path clip-path="url(#pbe9b96d8c1)" d="M 266.744919 212.749028 
L 262.796635 227.939194 
" style="fill:none;stroke:#999999;"/>
    <path clip-path="url(#pbe9b96d8c1)" d="M 266.744919 212.749028 
L 270.453547 213.799077 
" style="fill:none;stroke:#999999;"/>
    <path clip-path="url(#pbe9b96d8c1)" d="M 103.625116 57.313513 
L 98.973215 56.739591 
" style="fill:none;stroke:#999999;"/>
    <path clip-path="url(#pbe9b96d8c1)" d="M 266.508069 229.110375 
L 270.453547 213.799077 
" style="fill:none;stroke:#999999;"/>
    <path clip-path="url(#pbe9b96d8c1)" d="M 266.508069 229.110375 
L 262.796635 227.939194 
" style="fill:none;stroke:#999999;"/>
    <path clip-path="url(#pbe9b96d8c1)" d="M 266.508069 229.110375 
L 274.027813 231.482449 
L 274.097513 238.448898 
" style="fill:none;stroke:#999999;"/>
    <path clip-path="url(#pbe9b96d8c1)" d="M 98.973215 56.739591 
L 103.625116 57.313513 
" style="fill:none;stroke:#999999;"/>
    <path clip-path="url(#pbe9b96d8c1)" d="M 98.973215 56.739591 
L 98.044996 68.274513 
" style="fill:none;stroke:#999999;"/>
    <path clip-path="url(#pbe9b96d8c1)" d="M 98.973215 56.739591 
L 99.895119 45.366267 
L 99.476822 44.851904 
L 97.182743 44.664778 
L 95.734535 44.21399 
L 95.426442 43.162224 
L 96.132215 31.387214 
" style="fill:none;stroke:#999999;"/>
    <path clip-path="url(#pbe9b96d8c1)" d="M 271.977468 207.884452 
L 270.453547 213.799077 
" style="fill:none;stroke:#999999;"/>
    <path clip-path="url(#pbe9b96d8c1)" d="M 249.385349 291.674084 
L 253.490613 279.501536 
" style="fill:none;stroke:#999999;"/>
    <path clip-path="url(#pbe9b96d8c1)" d="M 271.006489 262.899558 
L 266.064173 261.176918 
" style="fill:none;stroke:#999999;"/>
    <path clip-path="url(#pbe9b96d8c1)" d="M 271.006489 262.899558 
L 275.270462 264.544978 
" style="fill:none;stroke:#999999;"/>
    <path clip-path="url(#pbe9b96d8c1)" d="M 271.006489 262.899558 
L 263.539226 282.560747 
" style="fill:none;stroke:#999999;"/>
    <path clip-path="url(#pbe9b96d8c1)" d="M 271.006489 262.899558 
L 274.048877 253.684059 
" style="fill:none;stroke:#999999;"/>
    <path clip-path="url(#pbe9b96d8c1)" d="M 255.36275 291.149099 
L 259.006267 281.405846 
" style="fill:none;stroke:#999999;"/>
    <path clip-path="url(#pbe9b96d8c1)" d="M 262.796635 227.939194 
L 266.744919 212.749028 
" style="fill:none;stroke:#999999;"/>
    <path clip-path="url(#pbe9b96d8c1)" d="M 262.796635 227.939194 
L 266.508069 229.110375 
" style="fill:none;stroke:#999999;"/>
    <path clip-path="url(#pbe9b96d8c1)" d="M 262.796635 227.939194 
L 261.672257 227.585364 
L 255.204254 225.900595 
" style="fill:none;stroke:#999999;"/>
    <path clip-path="url(#pbe9b96d8c1)" d="M 146.263224 368.970114 
L 147.945674 352.407093 
L 150.065739 334.960941 
L 152.040668 323.921182 
" style="fill:none;stroke:#999999;"/>
    <path clip-path="url(#pbe9b96d8c1)" d="M 146.263224 368.970114 
L 160.687105 377.840113 
L 171.875213 384.660124 
L 179.533224 387.384809 
" style="fill:none;stroke:#999999;"/>
    <path clip-path="url(#pbe9b96d8c1)" d="M 146.263224 368.970114 
L 115.947859 347.232036 
L 95.550635 332.438063 
L 91.096292 330.907422 
L 81.417144 327.89741 
L 69.93313 325.67102 
L 65.434687 324.320098 
L 60.349427 318.565062 
L 33.814712 287.993253 
L 27.970069 283.23596 
L 15.871908 273.991954 
L 9.988112 269.910253 
L 7.854436 268.829778 
" style="fill:none;stroke:#999999;"/>
    <path clip-path="url(#pbe9b96d8c1)" d="M 267.920402 284.36816 
L 275.270462 264.544978 
" style="fill:none;stroke:#999999;"/>
    <path clip-path="url(#pbe9b96d8c1)" d="M 267.920402 284.36816 
L 269.649992 285.08263 
" style="fill:none;stroke:#999999;"/>
    <path clip-path="url(#pbe9b96d8c1)" d="M 267.920402 284.36816 
L 263.539226 282.560747 
" style="fill:none;stroke:#999999;"/>
    <path clip-path="url(#pbe9b96d8c1)" d="M 354.622806 340.508776 
L 359.402112 328.477932 
" style="fill:none;stroke:#999999;"/>
    <path clip-path="url(#pbe9b96d8c1)" d="M 249.143868 421.184725 
L 250.913209 411.29385 
L 250.640222 399.499461 
" style="fill:none;stroke:#999999;"/>
    <path clip-path="url(#pbe9b96d8c1)" d="M 268.395897 206.400212 
L 266.744919 212.749028 
" style="fill:none;stroke:#999999;"/>
    <path clip-path="url(#pbe9b96d8c1)" d="M 349.137129 247.611072 
L 350.049194 244.312999 
" style="fill:none;stroke:#999999;"/>
    <path clip-path="url(#pbe9b96d8c1)" d="M 349.137129 247.611072 
L 346.72101 246.793671 
" style="fill:none;stroke:#999999;"/>
    <path clip-path="url(#pbe9b96d8c1)" d="M 349.137129 247.611072 
L 353.588099 249.113999 
" style="fill:none;stroke:#999999;"/>
    <path clip-path="url(#pbe9b96d8c1)" d="M 359.402112 328.477932 
L 363.865885 329.985583 
L 362.249814 333.96756 
" style="fill:none;stroke:#999999;"/>
    <path clip-path="url(#pbe9b96d8c1)" d="M 359.402112 328.477932 
L 355.081299 327.017305 
" style="fill:none;stroke:#999999;"/>
    <path clip-path="url(#pbe9b96d8c1)" d="M 359.402112 328.477932 
L 354.622806 340.508776 
" style="fill:none;stroke:#999999;"/>
    <path clip-path="url(#pbe9b96d8c1)" d="M 241.789775 404.203014 
L 242.369876 410.450351 
L 240.609047 421.353975 
" style="fill:none;stroke:#999999;"/>
    <path clip-path="url(#pbe9b96d8c1)" d="M 241.789775 404.203014 
L 246.059789 402.162136 
L 246.804312 401.729854 
" style="fill:none;stroke:#999999;"/>
    <path clip-path="url(#pbe9b96d8c1)" d="M 241.789775 404.203014 
L 229.542747 408.365386 
L 223.082085 410.295654 
L 213.586254 412.521128 
L 207.221019 413.544188 
" style="fill:none;stroke:#999999;"/>
    <path clip-path="url(#pbe9b96d8c1)" d="M 362.91827 341.902112 
L 359.423417 340.714287 
" style="fill:none;stroke:#999999;"/>
    <path clip-path="url(#pbe9b96d8c1)" d="M 165.361564 404.615159 
L 164.898184 405.458157 
L 162.668659 410.497731 
L 161.891941 413.259683 
L 161.659366 416.768975 
L 163.460759 418.172546 
L 166.32012 418.187657 
L 169.217435 417.404394 
L 173.045693 415.989927 
" style="fill:none;stroke:#999999;"/>
    <path clip-path="url(#pbe9b96d8c1)" d="M 165.361564 404.615159 
L 168.227425 407.823795 
L 168.965524 410.081189 
L 175.183641 410.817183 
L 176.122819 410.853048 
L 176.33185 409.429435 
L 177.070947 402.895955 
L 177.343195 398.762729 
L 176.434636 397.351877 
L 173.603667 395.737273 
L 172.28726 393.752183 
" style="fill:none;stroke:#999999;"/>
    <path clip-path="url(#pbe9b96d8c1)" d="M 165.361564 404.615159 
L 167.1793 401.306522 
L 170.038078 396.659667 
L 172.28726 393.752183 
" style="fill:none;stroke:#999999;"/>
    <path clip-path="url(#pbe9b96d8c1)" d="M 7.854436 268.829778 
L 9.988112 269.910253 
L 15.871908 273.991954 
L 27.970069 283.23596 
L 33.814712 287.993253 
L 60.349427 318.565062 
L 65.434687 324.320098 
L 69.93313 325.67102 
L 81.417144 327.89741 
L 91.096292 330.907422 
L 95.550635 332.438063 
L 115.947859 347.232036 
L 146.263224 368.970114 
" style="fill:none;stroke:#999999;"/>
    <path clip-path="url(#pbe9b96d8c1)" d="M 7.854436 268.829778 
L 11.047221 266.725542 
L 12.837782 264.502779 
L 17.926178 256.88908 
L 24.845658 242.055878 
L 38.607534 217.549645 
L 49.144361 183.96153 
L 52.044715 171.411966 
" style="fill:none;stroke:#999999;"/>
    <path clip-path="url(#pbe9b96d8c1)" d="M 244.023912 423.091938 
L 246.234974 410.665357 
L 246.804312 401.729854 
" style="fill:none;stroke:#999999;"/>
    <path clip-path="url(#pbe9b96d8c1)" d="M 191.765021 402.171087 
L 191.121107 404.754034 
L 190.421491 410.799284 
L 190.35498 413.019472 
" style="fill:none;stroke:#999999;"/>
    <path clip-path="url(#pbe9b96d8c1)" d="M 269.240805 171.862951 
L 271.324293 172.194255 
" style="fill:none;stroke:#999999;"/>
    <path clip-path="url(#pbe9b96d8c1)" d="M 269.240805 171.862951 
L 269.71603 168.412584 
" style="fill:none;stroke:#999999;"/>
    <path clip-path="url(#pbe9b96d8c1)" d="M 269.240805 171.862951 
L 268.864954 176.384938 
" style="fill:none;stroke:#999999;"/>
    <path clip-path="url(#pbe9b96d8c1)" d="M 269.240805 171.862951 
L 264.425331 171.098599 
" style="fill:none;stroke:#999999;"/>
    <path clip-path="url(#pbe9b96d8c1)" d="M 355.081299 327.017305 
L 350.15029 339.077124 
" style="fill:none;stroke:#999999;"/>
    <path clip-path="url(#pbe9b96d8c1)" d="M 355.081299 327.017305 
L 339.362798 321.705085 
" style="fill:none;stroke:#999999;"/>
    <path clip-path="url(#pbe9b96d8c1)" d="M 355.081299 327.017305 
L 359.402112 328.477932 
" style="fill:none;stroke:#999999;"/>
    <path clip-path="url(#pbe9b96d8c1)" d="M 143.409573 185.015744 
L 148.699107 186.649429 
L 152.910124 187.76241 
L 158.043862 187.26696 
L 162.650289 187.708837 
L 161.638012 193.668362 
L 161.686512 199.95653 
" style="fill:none;stroke:#999999;"/>
    <path clip-path="url(#pbe9b96d8c1)" d="M 269.649992 285.08263 
L 273.368942 286.366816 
L 281.305893 289.287187 
L 286.77494 289.852777 
L 290.628353 290.176066 
L 291.759913 299.314276 
L 293.095271 307.935139 
L 292.856863 315.277828 
L 292.467958 323.243944 
L 290.214627 332.054174 
L 286.752644 344.910101 
L 285.505754 350.196798 
L 283.826456 354.03882 
L 277.167789 364.497164 
L 270.263389 376.508712 
L 264.925459 385.90382 
L 263.084716 392.921662 
" style="fill:none;stroke:#999999;"/>
    <path clip-path="url(#pbe9b96d8c1)" d="M 269.649992 285.08263 
L 267.920402 284.36816 
" style="fill:none;stroke:#999999;"/>
    <path clip-path="url(#pbe9b96d8c1)" d="M 269.649992 285.08263 
L 266.872801 292.326315 
" style="fill:none;stroke:#999999;"/>
    <path clip-path="url(#pbe9b96d8c1)" d="M 360.791819 337.452027 
L 362.249814 333.96756 
" style="fill:none;stroke:#999999;"/>
    <path clip-path="url(#pbe9b96d8c1)" d="M 360.791819 337.452027 
L 364.24605 338.851874 
" style="fill:none;stroke:#999999;"/>
    <path clip-path="url(#pbe9b96d8c1)" d="M 360.791819 337.452027 
L 359.423417 340.714287 
" style="fill:none;stroke:#999999;"/>
    <path clip-path="url(#pbe9b96d8c1)" d="M 263.539226 282.560747 
L 271.006489 262.899558 
" style="fill:none;stroke:#999999;"/>
    <path clip-path="url(#pbe9b96d8c1)" d="M 263.539226 282.560747 
L 259.006267 281.405846 
" style="fill:none;stroke:#999999;"/>
    <path clip-path="url(#pbe9b96d8c1)" d="M 263.539226 282.560747 
L 260.423736 292.54588 
" style="fill:none;stroke:#999999;"/>
    <path clip-path="url(#pbe9b96d8c1)" d="M 263.539226 282.560747 
L 267.920402 284.36816 
" style="fill:none;stroke:#999999;"/>
    <path clip-path="url(#pbe9b96d8c1)" d="M 387.02311 281.252912 
L 387.514991 282.152597 
" style="fill:none;stroke:#999999;"/>
    <path clip-path="url(#pbe9b96d8c1)" d="M 387.02311 281.252912 
L 382.682558 284.76631 
L 380.976906 285.020879 
L 377.057918 282.738866 
L 373.349747 280.482198 
L 368.710593 278.057168 
L 363.957713 276.289123 
L 355.503245 272.918558 
L 347.862191 269.988903 
L 343.469252 268.275384 
L 342.443051 267.452127 
L 340.504504 265.476548 
L 333.674755 262.776203 
L 324.942899 258.574823 
L 322.615099 259.462371 
L 311.722019 255.074227 
" style="fill:none;stroke:#999999;"/>
    <path clip-path="url(#pbe9b96d8c1)" d="M 387.02311 281.252912 
L 385.916724 279.223771 
L 382.552821 270.726633 
L 378.823335 261.924621 
L 377.460145 257.177737 
" style="fill:none;stroke:#999999;"/>
    <path clip-path="url(#pbe9b96d8c1)" d="M 246.804312 401.729854 
L 250.640222 399.499461 
" style="fill:none;stroke:#999999;"/>
    <path clip-path="url(#pbe9b96d8c1)" d="M 246.804312 401.729854 
L 246.059789 402.162136 
L 241.789775 404.203014 
" style="fill:none;stroke:#999999;"/>
    <path clip-path="url(#pbe9b96d8c1)" d="M 246.804312 401.729854 
L 246.234974 410.665357 
L 244.023912 423.091938 
" style="fill:none;stroke:#999999;"/>
    <path clip-path="url(#pbe9b96d8c1)" d="M 240.609047 421.353975 
L 242.369876 410.450351 
L 241.789775 404.203014 
" style="fill:none;stroke:#999999;"/>
    <path clip-path="url(#pbe9b96d8c1)" d="M 389.307595 293.406816 
L 390.209941 287.089661 
L 387.514991 282.152597 
" style="fill:none;stroke:#999999;"/>
    <path clip-path="url(#pbe9b96d8c1)" d="M 389.307595 293.406816 
L 387.659377 294.179352 
L 385.885555 295.529842 
L 385.828969 298.727268 
L 384.341581 301.645044 
" style="fill:none;stroke:#999999;"/>
    <path clip-path="url(#pbe9b96d8c1)" d="M 259.006267 281.405846 
L 266.064173 261.176918 
" style="fill:none;stroke:#999999;"/>
    <path clip-path="url(#pbe9b96d8c1)" d="M 259.006267 281.405846 
L 253.490613 279.501536 
" style="fill:none;stroke:#999999;"/>
    <path clip-path="url(#pbe9b96d8c1)" d="M 259.006267 281.405846 
L 255.36275 291.149099 
" style="fill:none;stroke:#999999;"/>
    <path clip-path="url(#pbe9b96d8c1)" d="M 259.006267 281.405846 
L 263.539226 282.560747 
" style="fill:none;stroke:#999999;"/>
    <path clip-path="url(#pbe9b96d8c1)" d="M 263.084716 392.921662 
L 264.925459 385.90382 
L 270.263389 376.508712 
L 277.167789 364.497164 
L 283.826456 354.03882 
L 285.505754 350.196798 
L 286.752644 344.910101 
L 290.214627 332.054174 
L 292.467958 323.243944 
L 292.856863 315.277828 
L 293.095271 307.935139 
L 291.759913 299.314276 
L 290.628353 290.176066 
L 286.77494 289.852777 
L 281.305893 289.287187 
L 273.368942 286.366816 
L 269.649992 285.08263 
" style="fill:none;stroke:#999999;"/>
    <path clip-path="url(#pbe9b96d8c1)" d="M 263.084716 392.921662 
L 258.454163 394.845012 
L 254.908584 396.977205 
" style="fill:none;stroke:#999999;"/>
    <path clip-path="url(#pbe9b96d8c1)" d="M 263.084716 392.921662 
L 264.112675 392.49462 
" style="fill:none;stroke:#999999;"/>
    <path clip-path="url(#pbe9b96d8c1)" d="M 172.28726 393.752183 
L 175.878811 390.829695 
L 179.533224 387.384809 
" style="fill:none;stroke:#999999;"/>
    <path clip-path="url(#pbe9b96d8c1)" d="M 172.28726 393.752183 
L 170.038078 396.659667 
L 167.1793 401.306522 
L 165.361564 404.615159 
" style="fill:none;stroke:#999999;"/>
    <path clip-path="url(#pbe9b96d8c1)" d="M 172.28726 393.752183 
L 173.603667 395.737273 
L 176.434636 397.351877 
L 177.343195 398.762729 
L 177.070947 402.895955 
L 176.33185 409.429435 
L 176.122819 410.853048 
L 175.183641 410.817183 
L 168.965524 410.081189 
L 168.227425 407.823795 
L 165.361564 404.615159 
" style="fill:none;stroke:#999999;"/>
    <path clip-path="url(#pbe9b96d8c1)" d="M 80.977479 92.334313 
L 75.713765 90.892539 
" style="fill:none;stroke:#999999;"/>
    <path clip-path="url(#pbe9b96d8c1)" d="M 80.977479 92.334313 
L 88.426474 76.371314 
L 98.044996 68.274513 
" style="fill:none;stroke:#999999;"/>
    <path clip-path="url(#pbe9b96d8c1)" d="M 80.977479 92.334313 
L 71.398751 112.859298 
L 59.826261 151.452582 
L 55.305443 161.352935 
L 52.044715 171.411966 
" style="fill:none;stroke:#999999;"/>
   </g>
  </g>
 </g>
 <defs>
  <clipPath id="pbe9b96d8c1">
   <rect height="432" width="408.430659" x="0" y="0"/>
  </clipPath>
 </defs>
</svg>
