<?xml version="1.0" encoding="utf-8" standalone="no"?>
<!DOCTYPE svg PUBLIC "-//W3C//DTD SVG 1.1//EN"
  "http://www.w3.org/Graphics/SVG/1.1/DTD/svg11.dtd">
<!-- Created with matplotlib (http://matplotlib.org/) -->
<svg height="432pt" version="1.1" viewBox="0 0 331.764944 432" width="331.764944pt" xmlns="http://www.w3.org/2000/svg" xmlns:xlink="http://www.w3.org/1999/xlink">
 <defs>
  <style type="text/css">
*{stroke-linecap:butt;stroke-linejoin:round;}
  </style>
 </defs>
 <g id="figure_1">
  <g id="patch_1">
   <path d="M 0 432 
L 331.764944 432 
L 331.764944 0 
L 0 0 
z
" style="fill:none;opacity:0;"/>
  </g>
  <g id="axes_1">
   <g id="PathCollection_1">
    <defs>
     <path d="M 0 1.936492 
C 0.513564 1.936492 1.006162 1.732451 1.369306 1.369306 
C 1.732451 1.006162 1.936492 0.513564 1.936492 0 
C 1.936492 -0.513564 1.732451 -1.006162 1.369306 -1.369306 
C 1.006162 -1.732451 0.513564 -1.936492 0 -1.936492 
C -0.513564 -1.936492 -1.006162 -1.732451 -1.369306 -1.369306 
C -1.732451 -1.006162 -1.936492 -0.513564 -1.936492 0 
C -1.936492 0.513564 -1.732451 1.006162 -1.369306 1.369306 
C -1.006162 1.732451 -0.513564 1.936492 0 1.936492 
z
" id="C0_0_8b85be1845"/>
    </defs>
    <g clip-path="url(#p04a01b284b)">
     <use style="fill:#66ccff;" x="312.294991" xlink:href="#C0_0_8b85be1845" y="332.523245"/>
    </g>
    <g clip-path="url(#p04a01b284b)">
     <use style="fill:#66ccff;" x="325.384849" xlink:href="#C0_0_8b85be1845" y="8.307692"/>
    </g>
    <g clip-path="url(#p04a01b284b)">
     <use style="fill:#66ccff;" x="6.380095" xlink:href="#C0_0_8b85be1845" y="408.314249"/>
    </g>
   </g>
   <g id="LineCollection_1">
    <path clip-path="url(#p04a01b284b)" d="M 312.294991 332.523245 
L 319.587263 211.103511 
L 325.384849 8.307692 
" style="fill:none;stroke:#999999;"/>
    <path clip-path="url(#p04a01b284b)" d="M 312.294991 332.523245 
L 308.897349 388.981672 
L 279.80164 409.344112 
L 214.518222 423.692308 
L 6.380095 408.314249 
" style="fill:none;stroke:#999999;"/>
    <path clip-path="url(#p04a01b284b)" d="M 325.384849 8.307692 
L 319.587263 211.103511 
L 312.294991 332.523245 
" style="fill:none;stroke:#999999;"/>
    <path clip-path="url(#p04a01b284b)" d="M 6.380095 408.314249 
L 214.518222 423.692308 
L 279.80164 409.344112 
L 308.897349 388.981672 
L 312.294991 332.523245 
" style="fill:none;stroke:#999999;"/>
   </g>
  </g>
 </g>
 <defs>
  <clipPath id="p04a01b284b">
   <rect height="432" width="331.764944" x="0" y="0"/>
  </clipPath>
 </defs>
</svg>
